<svg xmlns="http://www.w3.org/2000/svg" viewBox="0 0 412 120"><defs><style>.a{fill:#d2a8ae;}</style></defs><path class="a" d="M153.49,112.56h0Zm0,0h0ZM96.31,98.34c.7,0,1.51-.11.81-.27a8.28,8.28,0,0,0-1-.13h0c-.64.16-.7.28-.51.33h0A2.55,2.55,0,0,0,96.31,98.34Zm26.8,14.89h0a4.47,4.47,0,0,1,.61.33l1.89-.12-.62-.31Zm38.38-1.15h0a2.75,2.75,0,0,0,1.2.28,2.8,2.8,0,0,0,1.07-.21c-.43-.13-1.24-.12-1.57-.28C161.69,111.92,161.49,112,161.49,112.08Zm-3-.13h0c-.9.1-1.26.21-1.24.28s.37.16,1,.23c-.46,0-.88,0-1.3,0a25,25,0,0,0-3.46.12,5.67,5.67,0,0,1,1.86.43c1.24-.12,4.06-.12,4.53-.31.16-.07.1-.15-.34-.26l.82,0C160.15,112.11,159,112.16,158.52,112Zm-32.13,0a2.93,2.93,0,0,1-.81-.3h0c-2.37.15-3.21.45-2.53.86h0a6.12,6.12,0,0,0,1,.08,3.22,3.22,0,0,0,.87-.09,2.3,2.3,0,0,1,1.3,0c.51,0,.56-.13.41-.13a4.33,4.33,0,0,0-.72,0c-.25-.15.92-.19,1.56-.26A10.31,10.31,0,0,1,126.39,112ZM143,113.66a12.15,12.15,0,0,0,3.4.37l.25.14,1.91-.11h0l-.62-.32-.5,0a12.87,12.87,0,0,0-4.42-.11Zm2-.91a5.62,5.62,0,0,0,1.47-.22,8.91,8.91,0,0,0-2-.08h0C143.74,112.49,144.16,112.74,145,112.75Zm-14.07-.21h0Zm5.36,1.89a18.16,18.16,0,0,0-2.32.29,1.17,1.17,0,0,1,.27-.42c.34,0,.69,0,1,0a3.3,3.3,0,0,0-.73-.36.48.48,0,0,0,.17-.29h0c-.4,0-.74,0-1,0-.78-.21-1.63-.38-2.19-.56.33-.06.51-.12.5-.2s-.24-.18-.74-.31c-.15,0-.28.08-.4.1a.2.2,0,0,1,.06-.14,7.11,7.11,0,0,1-2.16-.06c-.21,0-.3,0-.21.19a.27.27,0,0,0,.07.08c-.31,0-.68,0-1.14,0h0l.91.47,1.7-.07c.41.07.89.13,1.44.19,0,.06-.06.11-.21.11a6.73,6.73,0,0,1-2-.18c-.2.4,1.4.92.89,1.57l.42-.09.42-.07c.58-.12,1.06-.24,1.06-.41a2.71,2.71,0,0,0,1.12.44l-.33,0a11.36,11.36,0,0,0,3.36,0C137,114.7,137.18,114.57,136.29,114.43Zm7-1.21c.13-.1-.14-.31-1.14-.6l0,0c-.7-.22-.83-.1-.7.07a1.73,1.73,0,0,0,.66.45h0a1.74,1.74,0,0,0,1.15.06ZM83.17,89.45l0,0h.08A.31.31,0,0,0,83.17,89.45ZM135.83,115h0c-.12.07,0,.15.58.23l1.86-.1s0,0,0,0-.15,0,0-.09A1.74,1.74,0,0,1,139,115l-.05,0A7,7,0,0,0,135.83,115Zm1.6-2.81a2.28,2.28,0,0,0-.8-.3,23.18,23.18,0,0,0-4.4.42v0h0c2.15.3,3.5.48,3.1,1.06l2.84-.16c-.24-.28-1.42-.22-1.86-.42C136.82,112.64,137.75,112.48,137.43,112.21ZM359.17,99.87h0c-.56.62.16.77.51,1.06,0,0,0,0,0-.07a.46.46,0,0,0-.17-.57l-.19-.17a.46.46,0,0,1-.15-.25h0ZM181.6,99.05q.75,0,1.5-.06c-.42-.13-1.23-.12-1.56-.28l-1.88.11a.49.49,0,0,0,.42.19l0,0Q180.85,99.05,181.6,99.05ZM129.71,116h0Zm25.79-2.63c-2.66-.23-2.54.23-5.66.32h0c-.09.26.7.25,1.5.25s1.53,0,1.62.21l-.21,0a2,2,0,0,0-.68.07c-.08,0,0,.1,0,.1-2.67.26-4.72.53-6.3.85l-.19,0-.25-.13c-.64,0-1.27.1-1.88.1h0l.61.32.38,0a11,11,0,0,0-2.09.87c.58,0,1.16.06,1.74.07a22.58,22.58,0,0,0,2.33-.12c.18-.09.1-.16.11-.21s.16-.16.08-.16a6.27,6.27,0,0,0-1.42-.28c3.11,0,5.84-1.32,7.84-.26a4.29,4.29,0,0,0,2-.33c.37-.24-.19-.58-.08-.85a7.08,7.08,0,0,1-1.84,0c.56-.19,1.87-.3,2.36-.48C155.72,113.58,155.8,113.49,155.5,113.35ZM129.73,116a1.84,1.84,0,0,0,.77.17,4.24,4.24,0,0,0,1-.15c.54-.14,1-.27,1.34,0h.08C134.54,115.5,131.05,115.75,129.73,116Zm3.1-1.18h0Zm15.36-2.73c.4-.21-.43-.5-2.14,0h0a5.21,5.21,0,0,0,2.13,0Zm-15.3,2.73h0Zm9.48,1.5h0Zm15-16.28Zm-14.82,6-.59-.31h0l-1.88.1.62.32Zm1.76,0c.41-.16,2.23-.34,2.3-.4s0-.14-.39-.24h-.11a14.62,14.62,0,0,0-2.18.38l0,0h0C143.81,105.81,143.9,105.89,144.28,106Zm-15.36.52a15.85,15.85,0,0,1,1.58-.28l-.63-.31c-1.08,0-1.42.1-1.42.21h0C128.42,106.24,128.72,106.38,128.92,106.51Zm49.46-5.6a10.2,10.2,0,0,0,1.35.09c1.08,0,1.49-.21,1.1-.3A7.78,7.78,0,0,0,178.38,100.91Zm-3-.49ZM160.34,100c-.1-.11-.37-.21-.47-.32h0a21.29,21.29,0,0,0-2.51.33c.59.15,2.09,0,2.51.21C160.34,100.19,160.44,100.11,160.34,100Zm15.12.36-.05,0a12.37,12.37,0,0,0,2.27.21c2.37,0,3.18-.86,4.36-1.12a16.16,16.16,0,0,0-3.11,0c-.44.17-.29.39.22.64A11.45,11.45,0,0,0,175.46,100.37ZM123.1,113.23h0Zm55.27-12.32h0Zm-13.05,5.55c.46-.1.69-.26.38-.39h.05l-.09,0a2.44,2.44,0,0,0-.26-.06h-.07c-.64-.11-1.27-.19-1.9-.26l.75.06c2.37-.2,1.65-.7,6-.7,1.3-.31-3-.69-1.22-1.17,1.46,0,2.91,0,4.36,0,.51.39.9.6,3.12.94-.12-.07.05-.19.35-.19a26.55,26.55,0,0,1,3.09-.18,2.32,2.32,0,0,0,.38-.06c1.28,0,2.66,0,3.93-.12a6.17,6.17,0,0,0,.74.19h-1.22a28.34,28.34,0,0,0-3.8.14c.42.11.53.11.63.26s-.36.32-.37.37.14.08.24.15,0,.08.1.08c1.83-.14,5.37-.36,6.28-.53.16,0-.27-.15-.5-.23l.45.06a4.9,4.9,0,0,0,.67-.07s0,0,0,0l.11-.06.41-.11c.08-.06-.09-.12-.37-.19l.17,0c.43,0,.49-.12.43-.12a5.14,5.14,0,0,0-1.24,0,4.29,4.29,0,0,1-.57-.15l.48-.07h-.65a.64.64,0,0,1-.36-.26,7.18,7.18,0,0,0-1,.1,1.17,1.17,0,0,0-.34-.29,1.15,1.15,0,0,0,1-.34h0a4.78,4.78,0,0,0-1.6,0c0-.05,0-.08.17-.1a9.38,9.38,0,0,1,1.4.07,5.84,5.84,0,0,0,.83-.18v0c1.07-.29-3.48,0-3.32,0l-2-.06a1.63,1.63,0,0,1,.49-.29,13.68,13.68,0,0,1-3.06-.22l.55,0c.26-.16-.33-.37-1.21-.59l0,0v0h-.18c-1-.25-2.34-.51-3.21-.76a12.1,12.1,0,0,0,1.7,0h0c-.22-.37-1.93-.23-3.44-.17l.54.09a3.74,3.74,0,0,0-.83.21l-.26.17a.49.49,0,0,1-.28.11c-.38,0-.76,0-1.13,0a13,13,0,0,0-2,0c.25,0,.14.09-.24.22a5,5,0,0,0-1.2-.42,2.92,2.92,0,0,1,.72-.06,5.6,5.6,0,0,0-2.27-.07c-1.11,0-1,.35-2.2.35-.05.23.12.4.39.55a18.36,18.36,0,0,1-3.13-.4h.6a17.56,17.56,0,0,0-4.69-.28h0c.38.33,1.76.31,3.24.29a38.92,38.92,0,0,0-5.48.7c-.29.12-.32.27.06.45.85-.12,2.09-.25,3.47-.33h0a4.37,4.37,0,0,0,1-.06,27.26,27.26,0,0,1,6.69.34,1.11,1.11,0,0,1,.48.35,5.61,5.61,0,0,0,.58,0l-.72.1c-.56.13-.13.26,1,.39.15.55-3.78.69-5.35,1-1.18.41,1.11.27,1.54.8-2.85.37-2.44-.41-3.44-.68-.74.15-.25.41-2.19.46h0c1.41.22,3,.39,4.6.54a34.38,34.38,0,0,0-3.66-.05,16.9,16.9,0,0,0,6.13.54l-.26.09-.13,0a4.58,4.58,0,0,0-1.86.34,4.43,4.43,0,0,0-.65.49c-.3,0-.61.06-.91.1a1.9,1.9,0,0,0-.46-.15,8.72,8.72,0,0,0-2.22.16,2.21,2.21,0,0,1-1.54,0,1.89,1.89,0,0,1-.87.41c-.46.13-1,.25-1.46.37-.65.18-1.15.37-1.05.61,0,0,0,.07.07.1a1.47,1.47,0,0,0,.47.27c-2.6,0-5.35.11-7.32-.08.32-.14.56-.29.41-.48a9.33,9.33,0,0,1-2.3-.07,4.19,4.19,0,0,0,1-.12v0c.33-.17-.15-.35-1.23-.17l-.29,0c-.12-.19,0-.42-.15-.61.71,0,1.43-.07,2.15-.14a3.56,3.56,0,0,0-1.9-.34,15.53,15.53,0,0,0,2.34-.34c.15-.07.06-.18-.48-.31-2.65.18-5,.38-4.64.82-1.12.09-2,.12-2.2-.14h0a10.93,10.93,0,0,0-2.41.33c-.22.07-.34.15-.35.25-1,0-1.95,0-2.89,0-1.25,0-2.5,0-3.88,0h0a7,7,0,0,0,1.63.31c-2,.13-5.15.42-7.64.6l-.1-.08a13.71,13.71,0,0,0,1.57-.18c.63-.15-.09-.3.41-.43a12.79,12.79,0,0,1,2-.17,11.49,11.49,0,0,0-2.48-.21c-.23-.06-.2-.14-.06-.14s.45-.06.68-.07a23.94,23.94,0,0,0-4.71.26h0c2.86.08,2.27.28,1.92.57a4.45,4.45,0,0,0-1.7-.25,6.57,6.57,0,0,0-1.59.23c-.13,0,0,.06-.13.12s-.21.13-.21.22a1.74,1.74,0,0,0,.11.18c.13.19.31.39.2.57-1.13.31-.8.75-4.7.81a6.65,6.65,0,0,0,1.44.38s-.15.1-.52.1h0a4.46,4.46,0,0,0,.63.05c1.69,0,3.82-.68,7.54-.68a9.55,9.55,0,0,1,2.67,0,9.8,9.8,0,0,0,2.65,0c-.05-.07.06-.15.22-.21l.54-.19.08-.07c.08,0,.19-.07.16-.14s-.17-.16-.52-.26l.57,0a.91.91,0,0,1,.16.11,1.65,1.65,0,0,0,.25-.15c.74-.1,1.05-.23.93-.4l-.14-.1.17-.1.7-.06c.43.13-.08.21-.63.21.94.22,1.16.11,1.32-.06l0,0a.8.8,0,0,1,.35-.33c3.47.2,8.21.26,10.49.58a2.25,2.25,0,0,0-.35.09c-.52.17.11.4,1.21.51l.09,0a2.38,2.38,0,0,0-1.08.5v0c-.17.18-.1.4.19.63,4.51-.39,7-1.07,10.05-.21,1.75,0,2.32-.23,2.21-.43a3.3,3.3,0,0,0-1.86-.48,57.77,57.77,0,0,1,10-.75,31.13,31.13,0,0,0-3.61-.55c.13,0,.26-.1.38-.15a3.76,3.76,0,0,1,.4-.13l.44,0c2.17-.14,3.35-.4,3.69-.7S165.82,106.65,165.32,106.46Zm8.19,1.58h0c1.2.53,4.07.5,6.43.65a1.58,1.58,0,0,0,.48-.1,6.27,6.27,0,0,0-1.73,0c-.22-.06-.3,0-.33-.16s.76-.2,1.6-.26v0c-.7-.47-3.89-.6-5.75-.34a.62.62,0,0,1-.42-.2c.61,0,1.3,0,2.05-.1a17.6,17.6,0,0,0-4.7-.27,4.45,4.45,0,0,0,2.3.38C172.91,107.71,173,107.9,173.51,108Zm-2-1c.64,0,1.43-.05,2.16-.08h0a14.67,14.67,0,0,1-1.59-.27l-1.87.11C170.33,107,170.83,107,171.49,107Zm-55.33-.1c0,.11.19.24.74.35h.15c1.39,0,1.54-.14,1.47-.23s-.27-.13-.38-.26.11-.21,1.61-.21h0C118.31,106.3,116.16,106.6,116.16,106.94Zm54.05-.14h0ZM0,0V92.5c.52.12,1.14.18.66.63a2.92,2.92,0,0,1,2.65.14.86.86,0,0,1,.21.78.67.67,0,0,1-.37-.14c-.29-.17-.29-.41-.58-.58A6.18,6.18,0,0,0,2,93.21c-.24,1.07,1.17,1.52,2.22,2.15a.62.62,0,0,1-.54.2h0c.35.44.71.38,1.05-.17,0,0,0-.15,0-.23s.19-.42.3-.62A.61.61,0,0,1,5,94.4c1.24.45,1.72.35,2,.95a.66.66,0,0,1,.11.24,1.2,1.2,0,0,0,1,0c.19-.11.39,0,.57.22-.13.82-.8.9-1.2,1.35a1,1,0,0,0-.16.2,3,3,0,0,1-1-.36l-.23-.11A2.62,2.62,0,0,0,5,96.55a.5.5,0,0,0-.08.5.63.63,0,0,0,.43.26,6.35,6.35,0,0,0,1.23.07c0,.54.91.74.7,1.34,1.26.1,1.78.48,2.46.36.83.19-1,.41.4.56a.69.69,0,0,1-.68,0h-.3c-.47.38.16,1-.33,1H8.41c.16.32.48.25.85.19a1.1,1.1,0,0,1,1.22.3c-.19-.46.51-1.23.09-1.63.59-.13,1.31-.61,1.67-.08.43-.5,0-.7.17-1.1a.55.55,0,0,1,.12-.24c1,.12.81.79.2,1,.14.27.3.42.45.45a3.28,3.28,0,0,0,.67.22h.07l.76.15h.05a.8.8,0,0,1,.47.18c.23.06.47-.21.68-.77,1,.09.21.83.73,1.11.08,0,.19.07.36.09a3.18,3.18,0,0,0-1.67.77c-.3.59.15,1,.78,1.09h.49a2.13,2.13,0,0,0,1.3-.3.44.44,0,0,0,.05-.37.4.4,0,0,0-.1-.12.54.54,0,0,0-.15-.15h-.16l-.29-.14-.54-.15a4,4,0,0,1,2-1.42l-.51-.26c-.68-.37-1.28-.72-2-1.08l.24.08c0-.72-.69-.51-.4-1.53-.28-.14-.56,0-.83.38a2.13,2.13,0,0,0-.11.57l-.45-.23-.51-.22a.66.66,0,0,0-.11-.74,1.54,1.54,0,0,0-.28-.29v-.3h-.3c-1.79-.38-.92.85-2.36.85a.55.55,0,0,1-.27-.33.57.57,0,0,1,.37-.72,1.13,1.13,0,0,1,.68,0c-.2-.85,1.29-1.66.34-2.19a2.32,2.32,0,0,0-.57-.22c-.48,0,0,.31-.28.64a1.8,1.8,0,0,0-.92.09,1.28,1.28,0,0,0-.4.29H9.36V95h-1c.32-.45,1-.73.57-1.25a3.14,3.14,0,0,0-1.35-.24,4.12,4.12,0,0,1-1.4-.18h.14c.5-.26,0-.57-.36-.89a.58.58,0,0,1-.18-.3c.14-.52.93-.11,1.17-.49,0,0,.1-.07.1-.16.78.45,2.31.39,1.88,1.63.37,0,.51.16.5.35a3.44,3.44,0,0,1,2,0,3.82,3.82,0,0,0,1.93,0,.2.2,0,0,0,0-.08,1.63,1.63,0,0,0,.6-.47l.19-.2a4.91,4.91,0,0,1,.82,2c.24.38.85.32.81,1a1.87,1.87,0,0,1,.83-.77c-.33-.94-1.12-1.34-1-2.81-.69,0-1.3-.57-1.65.24a3.94,3.94,0,0,1-.59-1h.5a6.57,6.57,0,0,1,1.4.12c.24-.21.28-.33.24-.45s.18.1.31.1c-.18-.1-.76-.73-.62-1.06.13-.18.28-.25.42-.2-.08-.58-1.12,0-1-.78a.74.74,0,0,1,.1-.5.51.51,0,0,1,.44-.13c.14,0,.27,0,.28-.11s0-.28-.18-.39c.12.07.23,0,.34-.12a.84.84,0,0,0,.62.26c.1-.55-.52-.69-1.43-.64.12.11.24.21,0,.24a.91.91,0,0,1-.39-.2s0-.19,0-.35a1.41,1.41,0,0,0,1-.38c.67-.13.31.54.4.57a3.55,3.55,0,0,0,1.3,0,4.41,4.41,0,0,1,1.66,0c-.17-.71-1.2-1.09-2.29-1.53.23-.33,0-.49-.35-.62H16a1.41,1.41,0,0,1,.61-.4c-.05-.44-.35-.58-.83-.5a2.06,2.06,0,0,0,.21-1h.29a3.78,3.78,0,0,0,.95.92,4.39,4.39,0,0,1-.59,1,2.32,2.32,0,0,0,1.27-.24,1.5,1.5,0,0,1,1.1.09c.45-.64-.69-.69,0-1.42a.45.45,0,0,0,.28,0c.26,0,.48-.18.81-.15l1.48,1.05a.56.56,0,0,0,.63-.24.16.16,0,0,0-.13-.11,11.56,11.56,0,0,1,1.8-.7,3.86,3.86,0,0,0,.1.76c-.15,0-.29,0-.37.12a8,8,0,0,0,.26.83,1.23,1.23,0,0,0-.12.26.33.33,0,0,0,0,.24.24.24,0,0,0,0,.08.76.76,0,0,0,.29.3s.08-.06.12-.19l0,.11.12.29.13.33a3.74,3.74,0,0,1,.12.45,4.7,4.7,0,0,0-.2,1,.48.48,0,0,1-.12.16h0c0-.1-.06-.16-.1-.16a1,1,0,0,0-.7.26c-.28-.29-.4-.46-.54-.57H23v-.5c-.72-.09-1.11-.85-2.06-.41.08.22.22.14.39.06a.66.66,0,0,1,.44-.06c.07.32-.39.27-.22.64a.48.48,0,0,1,.64.08H22l-.2.33a1,1,0,0,0,0,1.2.86.86,0,0,0-.75.1,1.08,1.08,0,0,1-.49.15H20.1c.15.5-.46.48-.82.38a3.09,3.09,0,0,1-.43-.14h0c-.18-.14-.53-.11-.51-.55a0,0,0,0,0-.07,0h-.05c-.06.11,0,.4-.08.46L18,89.51H18c-.08-.14-.15-.34-.1-.4a.94.94,0,0,0-.19.32H16.6c0,.39.76.37.82.77h.08a1.29,1.29,0,0,1-.44.89,1,1,0,0,0,1.07.36,11.26,11.26,0,0,0,1.2-.35.48.48,0,0,0,0-.17l.06,0-.06,0v.06l0,0a.59.59,0,0,0-.29-.47,2.21,2.21,0,0,1,.68,0,2.27,2.27,0,0,0,1.18-.17.77.77,0,0,1-.22-.35s0,0,0,0a.13.13,0,0,0,.18,0c.09,0,.2-.17.32-.26a.67.67,0,0,1,.77-.12c.74,0,.16,1.67.61,2a.62.62,0,0,0-.29.24s-.11.08-.14.14a2.9,2.9,0,0,0-.2.87c-.27-.32-.55-.43-.83-.32-.16,1.17,0,2,1,1.81a2.28,2.28,0,0,1,0-.26c.33.08.55.5.84.6h0a.28.28,0,0,0,.22,0h.4a.28.28,0,0,1,.18,0h.07c.05,0,.09.13.1.29q.12,0,.21-.3a.68.68,0,0,1,0,.4c0,.06,0,0,0,0v0a.35.35,0,0,1-.38.14h0a.4.4,0,0,0,.42,0h.09a1.54,1.54,0,0,0,.29-.28h0l.29-.46a3.88,3.88,0,0,1,.26.31.43.43,0,0,0,.23.14h.16a1.18,1.18,0,0,0,.6-.19,3.41,3.41,0,0,0,.61-.53.32.32,0,0,1,.21.08s0,.09-.19.13c.29.54,1.24-.2,1.35-.38a1,1,0,0,0-.12-.52h.31c.05-.5.07-1-.22-1.06a.48.48,0,0,0-.37,0c0-.44-.16-.66-.42-.76a.59.59,0,0,0,.14-.3v-.25s.05-.09.05-.17a1.49,1.49,0,0,0-.15-.4H27.3a1.37,1.37,0,0,1,0-.29,1.46,1.46,0,0,1,0-.29c.31-.07.61-.6.86-1.52h0a5,5,0,0,1,.32-.84,1.55,1.55,0,0,1,.25-.41,3.37,3.37,0,0,1,1.61.17h.19a5.08,5.08,0,0,1,1.28.82.84.84,0,0,0-.24.22l-.2-.2c-.63-.08-.65.23-.92.38v0c.16-.17-.06-.38-.08-.87-.07,0-.14.1-.21.25s-.16,0-.17.17a1,1,0,0,0,.17.59h-.24c.4.09.78.38,1.23.49.25.3.59.61.72.79a.34.34,0,0,0,.15-.2s-.3-.3-.42-.5c0,0,0,0,0-.11H32a.46.46,0,0,0-.12-.42,1.43,1.43,0,0,1,.31-.34c-.06-.09-.1-.14-.16-.15a5.77,5.77,0,0,0,.6-.09.76.76,0,0,1,.46.12c-.08-.29,0-.41.07-.47s.67,0,.88,0,.15-.18.07-.47a1.57,1.57,0,0,0,1.47.45,1.84,1.84,0,0,0,1-.44l0-.34h.29l.44.11a2.35,2.35,0,0,0,1,.08c-.25,0-.11-.26.13-.44h0l0,.09.14.38a1,1,0,0,1,0,.59c.18-.41.37-.62.57-.61a2.08,2.08,0,0,0,.86-.15l0-.09a.83.83,0,0,0,0-.15h.24q0,.14-.06.24l0,.17c-.35.34.21,1.19.83,1.83l.09.09a4.41,4.41,0,0,0,.51.46h0a.84.84,0,0,1-.22.36h-.45a.79.79,0,0,0-.68.14h-.1a1.38,1.38,0,0,0-.32.5l0,.07a2.22,2.22,0,0,0-.13.61v.05h0v0h0v0h0a3,3,0,0,0,.06.42.53.53,0,0,0,0,.15.9.9,0,0,0,.29.4.56.56,0,0,0,.37-.27,1.82,1.82,0,0,1,.29-.38s0,.1,0,.14a.52.52,0,0,1,.16-.17.68.68,0,0,1,.35.17.57.57,0,0,0,0-.26h.58a1.42,1.42,0,0,0-.18-1.25.85.85,0,0,1,.8-.11.77.77,0,0,0,.63,0c-.14-.27-.1-.44.1-.55a.31.31,0,0,0-.22-.29,1,1,0,0,0-.24,0,.84.84,0,0,0-.09-.49c.2-.59.48-1.14.7-1.72a.55.55,0,0,1,.26.28.46.46,0,0,0,.16.18h.59s0,.14-.09.17a2,2,0,0,0,.48.2.82.82,0,0,1,0,.35.58.58,0,0,0,.26-.23,3.38,3.38,0,0,1,.72.33,2.22,2.22,0,0,0-1,.4,2.17,2.17,0,0,0,.62,1l-.33.26h0a2.13,2.13,0,0,0-.33.34l-.16.21a.35.35,0,0,0-.06.14.46.46,0,0,0,0,.26c.09.14.17.22.26.24h.08a1.76,1.76,0,0,0,.64.15c.22-.9-.17-.84.63-1.52a.38.38,0,0,1,.36,0c.12.17-.32.59,0,.87.7-.32,1.29-.66,1.46-1.19h.08c0-.18.09-.38.13-.6h.07a.39.39,0,0,1,.06.11,1.55,1.55,0,0,0,1,.29c.57.53.81,1.38,1.51,1.52a2.09,2.09,0,0,0,1.53-.78s0,.14.06.15h.1a.23.23,0,0,0,.29-.07,1.07,1.07,0,0,0,.07-.53c.25-.26.49-.51.69-.68h0v.1c.08.36.17.59.27.64s0,0,0,0a.08.08,0,0,0,.1,0,.66.66,0,0,0,0-.28,16.08,16.08,0,0,1,.5,1.53h0s0,0,0,0l0,.13a1,1,0,0,0,1.2.64c-.29-.66-.62-1-.94-.9.36-.16.71-.72,1-1.63a1,1,0,0,0,.72,0h.4c.25.17,0,.58.2.64h.22a.78.78,0,0,0,.15.66c.13,0,.19-.08.29-.09l0,.12a.71.71,0,0,0,.35-.26c.14,0,.28-.2.4-.5a.65.65,0,0,1,.72-.2c.11.07.1,1,.61.27.57.15.47,1.07,1,1.3-.12,0-.24.09-.35.29-.47-.18-.8-.55-1.17.08-.22.05-.43-.25-.62-.85-.18.42-.37.64-.57.64h0a.58.58,0,0,0,.07-.48c-.1,0-.2,0-.3.1h0l-.13.24a.21.21,0,0,1-.15.09h0a.59.59,0,0,0-.17.7c.13-.07.21,0,.3-.06a.86.86,0,0,0-.14.18,1,1,0,0,0-.08.57c.51-.52,1.07-.14,1.2-.67h.09c.11,0,.22.13.36.16a1,1,0,0,0,.7-.13,2.31,2.31,0,0,1,.12,1c-.75.2-1.89.35-1.15.78v0c.33,0,.71-.06,1.1-.08v.06a.39.39,0,0,0,.1-.08c1.57-.08,3.47-.07,4.6-.25a10.5,10.5,0,0,0-1.42-1.25c-.2,0-.4,0-.59,0,0-.11.17-.06.25,0h0c.66-.66-.08-1.09.55-1.71,1.55-.16,2.12-.55,2.29-1.2a.52.52,0,0,1,.09.34h0a.27.27,0,0,0,.3,0,1.16,1.16,0,0,0,.08-.66l.1,0c.39.24.8.46,1.21.67.63-.09.61-.47.76-.76a1.52,1.52,0,0,1,.67.1.48.48,0,0,0-.17-.4,1.34,1.34,0,0,0,1.34,0c.33.46,0,.9-.2,1.22a3.09,3.09,0,0,0-.77-.5c-.82.17-.39.47-.62.87.57.1.85.34,1.43.4a.85.85,0,0,0,.08-.35,1.09,1.09,0,0,1,.43.08c-.44.77-2,1.08-1.17,2.39-.14,0-.28-.06-.4-.29s-.15-.4-.24-.56c-.68,0-.41.58-1.25.61.71,1.12-.33,1.52-1.26,1.38.14.26.1.43-.1.55a1.27,1.27,0,0,0,1.67.44h.13a.26.26,0,0,0,.09-.17,1,1,0,0,0,.45-1.21c.1,0,.2.12.29.3s.16.61.32,1c0,0,.06,0,.08.11a1.41,1.41,0,0,0,.29.4c1.55-.73,1.88.62,3,.71a1,1,0,0,1,.1.54l0,.12a.79.79,0,0,1-.2.33h0L72,97h0l-.19.18a2.94,2.94,0,0,0,.17-.71c-.14.11-.28,0-.41-.26a.82.82,0,0,1-.34.27h0c-.24.08-.48,0-.73.17a1.45,1.45,0,0,1-.39-.3.86.86,0,0,1-.21-.61.77.77,0,0,1-.91,0c-.4-.4-.22.21.15.59a.54.54,0,0,0,.75.19c.07.53,0,.86.52.83h0a1.53,1.53,0,0,1,.11.42v.14a1.09,1.09,0,0,1-.07.3l-.07.1a.54.54,0,0,1-.44.14.63.63,0,0,0,.1.3l-.46.12a.43.43,0,0,0-.06.46c.06.15.29.38.39.56s.06.35-.33.55a.44.44,0,0,1-.27-.09c-.15-.14,0-.41.37-.46a2,2,0,0,0-1.37.09,2.49,2.49,0,0,1-1.24.14.85.85,0,0,1,.24.26c.29.5-1.23.47-1.06,1.52.74.87,1.5,1,2.25.4a1.37,1.37,0,0,0-1.17.08c-1-1.22.75-1.22.73-2a1.65,1.65,0,0,1,1.16.44,1.49,1.49,0,0,0,1.79.26c-.21,0-.42-.34-.61-.85,0-.75,1-.35.9-.78.11-.11.22,0,.32.25h0c0,.06.06.09.1.09s.31,0,.45-.38c.4,0,.6.7,1.53,0-.12-.31-.25-.48-.38-.49a.94.94,0,0,0-.7,0c0-.4.09-.84.12-1.3a.24.24,0,0,1,.28,0,1.64,1.64,0,0,1-.18-1,11.71,11.71,0,0,1,.26-2h0a2.41,2.41,0,0,0-1.69-.67.64.64,0,0,1,.1-.18s0-.11,0-.12-.32,0-.54,0-.34.06-.38,0,0-.08.24-.23a1.49,1.49,0,0,0-1.51-.09c0-.68.6-.64,1.13-.6s.9.06,1-.34l.28,0h.09a5.76,5.76,0,0,0,1-.22.85.85,0,0,1,.25.13c.17-.11.15-.15.07-.21l-.08,0,.08-.07v0l-.15,0a1.4,1.4,0,0,1-.1-.16c.7-.09,1-.12,1.14.23a1.24,1.24,0,0,1,0,.47c.57-.47.81-1,.47-1.37a1.44,1.44,0,0,0-.54-.41c-1.55.86-2.87.14-4.14,1.42l-.12,0a.29.29,0,0,0-.11-.18h0a.47.47,0,0,0-.28-.09.55.55,0,0,1,.2-.43h.06a1.35,1.35,0,0,1,.5-.11h.12a.5.5,0,0,0,0,.13,1.23,1.23,0,0,0,.81-.26.59.59,0,0,0,0-.23S71,91.1,71,91a1.48,1.48,0,0,0-.21-.5l0-.08a.31.31,0,0,1,0-.13h0a1.68,1.68,0,0,0-.43-.41c0-.8,1.88-.72.73-2A1.91,1.91,0,0,1,72,88a1.68,1.68,0,0,0,1.75-.16.53.53,0,0,1-.32-.18c-.48-.41.59-.76.33-1.37.31,0,.36.21.44.49l0,.12a.36.36,0,0,0,.08.12.35.35,0,0,0,.07.12c.07,0,.45-.19.54-.16.28.13.33.74.62.85,0,0,.63-.64.63.07-.06.49-.32.34-.64.19a.75.75,0,0,0-.8,0,.6.6,0,0,0,.63,0,1.32,1.32,0,0,0,.28,1.22h-.18c.15.23.3.3.46.21l.37.32c0,.23.18.49.4.63a2,2,0,0,1,.83-.37s0-.07,0-.1a1.41,1.41,0,0,1,1,0c.77.33.26.38.8-.23.22-.25.86-.54.78-.84s-.21-.32-.32-.32c-.66,0-.21.66-.64.69a1.87,1.87,0,0,1-1.34-.39c0-.67.7-.39.9-.79h0a3.92,3.92,0,0,1-.25-.32,1.21,1.21,0,0,0,.57.32c.63,0,.81-.26,1.24-.36,0,0-.09-.09-.13-.25a2.21,2.21,0,0,1,.83.66,4.07,4.07,0,0,1,.44.76h1.54a.55.55,0,0,0,.4,0,.41.41,0,0,0,0,.52,2.13,2.13,0,0,0,1.42-.58h0a.58.58,0,0,1,.45,0h0a.62.62,0,0,0,.43.2,2.88,2.88,0,0,0,.39.3v.23a1.15,1.15,0,0,1-1.08.23,2.77,2.77,0,0,0-.76,0c0,.14,0,.22-.1.32a1.69,1.69,0,0,0-.75-.65.93.93,0,0,0,.39.29c-.14,0-.26.12-.46.16.09.23.18.46.26.7-.3.54-.63.4-.9.77a.28.28,0,0,0-.06.25.89.89,0,0,0,.29.32s0,0,0,.11,0,0,0,0h0c-.2.22-1,.19-1,.51.39.6,1.2.49,1.6,1.09a1.57,1.57,0,0,1-1.38-.19,1.64,1.64,0,0,0-1.93.09c.22-.81,1-1.37,1.62-2-1-1.13-2.1-1.26-3.15-.41.23-.11.46,0,.68.28s-.21,1,0,1.17a.69.69,0,0,0,.78,0c.26.56-.14.84-.46,1.16-.63.33-.85-.06-1.06-.46s-.36-.67-.81-.55c0-.35.6-.38,1-.55-.09-.44-.2-.71-.32-.76h0c-.54-.53-1.56-.23-2.43-.17a1.07,1.07,0,0,1,.41.46,1.16,1.16,0,0,1,0,.18c.12.43,0,.87.52,1.15-.08.55-.84.79-1.71,1,.52,1,1.47.14,2.33-.16a3.89,3.89,0,0,1,2,1.53,4,4,0,0,1,.44.88q.56-.12,1.08-1.08c.12,0,.23,0,.34.2s.12.29.19.43A12.83,12.83,0,0,1,84,94.36a4.54,4.54,0,0,0,.82.7c-.58.06-1.14.15-1.71.25.84.17,1.69.32,2.54.44l-.33.15c.25,0,.51-.07.77-.09l.33,0c.26.09.45.32.68.84a.48.48,0,0,0,.28-.1s.08,0,.1-.14h0l.19.08h0a.93.93,0,0,0,.29,0,1.84,1.84,0,0,0,.33,0h.17a1.53,1.53,0,0,0,.7.13v0a2.15,2.15,0,0,0,.62,0c.63-.17.47-.05,0-.17l.73-.1h0c-.54-.06-1.09-.09-1.63-.11l.07-.06h.06l.06-.06a31.43,31.43,0,0,0,3.18.07c.69,0,1.41,0,2.11,0l.43.13h0c-.86.13-1.72.28-2.58.44-1.43.09-3.17.12-4.4.12h0c.64.38,2.34.4,4.26.35a5.88,5.88,0,0,1,.71.23,9.81,9.81,0,0,0,2.81-.18l.57,0h0l-.12,0c.54-.07,1.21-.15,2.1-.23l1.09-.1c.55-.13.37-.22.46-.35H100a2.31,2.31,0,0,0,.56.19h.31a4.92,4.92,0,0,0,1.29.34c-.74.59-1.85,1-1.55,2.08a1,1,0,0,1-.59,0,1.19,1.19,0,0,0-.26,0,.8.8,0,0,0,.3-1,14.22,14.22,0,0,0-4.41,1,4.42,4.42,0,0,0,1.94.2,6.06,6.06,0,0,1,1.8.13.35.35,0,0,0,.1-.11c.16.34.54.3.64.72a3,3,0,0,0-1,.17l-.11,0a1.44,1.44,0,0,0-1-.09,1,1,0,0,0,0,.17l-.37,0c-1,.09-1.07.17-1.39-.5a17.84,17.84,0,0,1-1.91,0,17.31,17.31,0,0,0-2.16,0c.43.37,3.37.4,3.43.7,0,0,0,0,0,0s0,0,0,0l-.87.11-.94,0-.33-.15h0c-.34.11-.52.14-.34.25s1.13.15,2,.31a4.11,4.11,0,0,1,1.13.35c.82-.08,1.53-.14,2.16-.16a.66.66,0,0,1,.06.34c-.09.26-.19.41-.29.44a.27.27,0,0,0,.12,0l-.13,0h0c-.21-.22-1.84-.3-2.21-.7-2.41,0-1.5.42-4.41.42a20,20,0,0,0,4.93.59c-.1,0-.15.09-.14.13s.22.19.68.3l3.77-.21h0c-.19-.36-1.47-.4-2.19-.6l-.13,0c.17-.09.29-.39.47-.69a1,1,0,0,1,.08-.11c.69,0,1.3,0,1.88,0h0s-.07.06-.11.15.17.58.2.87,0,.35-.45.36c.61,1,.56-.35.71-.45s.22,0,.27,0,0,.1.09.1c.22,0,.44-.27.64-.69a7.2,7.2,0,0,1,2.68.78,1.91,1.91,0,0,0,.6-.81l0-.09a3.24,3.24,0,0,0,.2-.87.94.94,0,0,1,.78.15c.29.18.51.35.75-.07-.16-.65-.8-.45-1.35-.4.16-.6-.38-1.09-.65-1.64.91-.31,1.44-.74,1.33-1s1.45-.23,2.51-.33a1,1,0,0,1-.52-.14c-.17-.17.63-.37.58-.37a5.56,5.56,0,0,0-1.35-.26v-.14l.31-.08a4.81,4.81,0,0,0,1.69-.06c.82-.12,1.46-.38,1.29-.61-1,0-1.53-.08-2.07-.12a3.44,3.44,0,0,1,1.21-.35c-.13-.36-.48-.32-.84-.29s-.73.08-.87-.28c.24-.56,0-1.34.71-1.67h.14a1.06,1.06,0,0,0,.61,0c.21.09.71,1,0,.76.33.61.68.86,1,.76,0,0-.09-.11-.12-.26h.07a4.81,4.81,0,0,0,1.22-.61h0a.53.53,0,0,0,.35-.09c.13-.09.16,0,.27,0a.42.42,0,0,1,0,.27c-.13.57-1.55.57-1.2,1.35a.83.83,0,0,0,.08.12h0a.84.84,0,0,0-.56,1c.86-.31,1.57,0,1.64.53a.15.15,0,0,1-.13,0c0,.26.2.35.4.3a.44.44,0,0,0,.16-.06.36.36,0,0,0,.07-.49h0a1,1,0,0,0,.24-.16c.11,0,.19-.13.32-.16-.09-.32-.18-.64-.27-.94a1.15,1.15,0,0,1,.68-.24h.08a1.58,1.58,0,0,1,.68.09.42.42,0,0,1,.06.12,5.23,5.23,0,0,0,.74,1.22l0,.07a2.7,2.7,0,0,0,.36.72,2.28,2.28,0,0,1-1.13.41c-.18-.46-.36-.93-.53-1.4a1.46,1.46,0,0,0-1.17,1,1.42,1.42,0,0,0,0,.58,24.46,24.46,0,0,0-2.57,0c0-.12,0-.24,0-.36-.23.37-.53.29-.93.21a1.76,1.76,0,0,0-1.31.15c.1.32.25.65.37,1l-.2-.11-.28-.14v0l-1.89.1.28.14.33.17,1.78-.1c.25.64.44,1.26.17,1.67a1.21,1.21,0,0,1-.86.46,1.49,1.49,0,0,0,1.83.27.53.53,0,0,0,0,.28q0,.19.09.36c.05.25,0,.46-.45.49l0,.09-1.84.1.63.32c.62,0,1.26-.11,1.88-.11l-.21-.11a1.42,1.42,0,0,0,.2-.22c.14-.19.28-.39.46-.15a.23.23,0,0,0,.24-.23,3,3,0,0,0-.59-.7,8.4,8.4,0,0,1,2-1.08c.14.23.42.23.7.23a1,1,0,0,1,.54.09,10.57,10.57,0,0,1-1.94.21c.6.13,1.2.24,1.8.32a2.15,2.15,0,0,0-1.29.25c.43,1.14,1.53,1.11,2.63,1.08h.78c-.12-.3-.23-.61-.35-.93.13.14.37.09.6,0s.54-.1.66.13c0-.11,0-.22,0-.33.46,0,.92,0,1.38,0a2.39,2.39,0,0,0-.43-.14c-.28-.08-.62-.15-.94-.22v-.4l.23,0c.32,0,.61-.08.88-.13l-.09.13c1.19-.07,1.09,1.22,1.51,1.63,0-.07,0-.15.08-.21.1-.29.18-.58.26-.87a3.87,3.87,0,0,0,.12-.84c.39,0,.57.29,1,.23.09,0,.09.14.05.22s-.69.42-.68.47,1.43.12,1.52.85h0c0,.38-.86.38-.89.73.65.59.81.2,1-.2a.36.36,0,0,1,0-.09.78.78,0,0,1,1.07-.32,1.26,1.26,0,0,1-.33-.4.66.66,0,0,1,0-.14,1,1,0,0,0,.14-.21.82.82,0,0,0,0-.44,2.93,2.93,0,0,1,1.69,1.32.64.64,0,0,0-.78.14c-.12.21-.06.59-.27,1a1,1,0,0,1-.21.29c0,.55.64.18.81.55a1.46,1.46,0,0,0-.31.59c-.25.37-.51.52-.76.44.24.38.73.29,1.24.2a2.73,2.73,0,0,1,.9,0c.18-.53-.33-.71-.2-.88a.77.77,0,0,1,.39-.2c-.15-.52-.51-.69-1.08-.47,0-.23,0-.35.08-.41s.26-.09.47-.09a1.84,1.84,0,0,0,1-.19c.48-.08.94.6,1.34,1.95,0,.08.06.15.08.22.66-.35.71.35,1.07.47a.28.28,0,0,1,.1-.09.53.53,0,0,1,.48-.16,1.85,1.85,0,0,0,.66-.09h.15c.86.12,3.11.4,3.56.54.51-.09.91-.16,1.2-.24.7-.17.67-.31-.18-.52a2.46,2.46,0,0,0,.38-.14c.17-.09,0-.18.11-.27a.57.57,0,0,1,.31-.15c.52-.16,2.56-.19,3-.41.15-.07.12-.16-.18-.29,1.53,0,4.49-.46,5-.1.35,0,.46,0,.5-.08s-1.19-.1-1.12-.23a1.21,1.21,0,0,1,.2-.09.94.94,0,0,1,.32-.15,9.22,9.22,0,0,1,4.18,0h.1a2.43,2.43,0,0,0,.6-.05,3.38,3.38,0,0,0,1,0c-.26.88.68,1.17.16,2a1.17,1.17,0,0,0-1.28.22c-.17.35.34,1,.47,1.52a.34.34,0,0,1-.05.17,2.23,2.23,0,0,1-.67.29,1.34,1.34,0,0,0,1.17,0l-.69-1.8h0a.58.58,0,0,1,.52.12.57.57,0,0,0,.73,0c.05,0,0,.12,0,.18a1,1,0,0,1,0,.23c-.06.23-.29.39-.29.65s.05.27.2.47a1.74,1.74,0,0,0,1.17-.07,1.63,1.63,0,0,1-.62.68h0c1,.3,2.06-.16,3.06-1.37-.18-.25-.26-.13-.37,0s-.24.22-.53,0a.24.24,0,0,1,.07-.26l.13-.1a.83.83,0,0,0,.42.18,28.11,28.11,0,0,0,4,0,1.36,1.36,0,0,0,.25.11,11,11,0,0,0,4.42-.43l-.47-.07,1.23-.1c-1.43-.4-4.71-.17-5.64-.75l-.72.14a.78.78,0,0,1,0-.22,1.52,1.52,0,0,1,0-.21c0-.06,0,0,0-.08a2.7,2.7,0,0,0,.08-.75l2.95-.1c1.55-.07,3.08-.13,3.85-.11a9.43,9.43,0,0,0-2.19,0c0-.17.41-.29.71-.39s.31-.19-1-.31a8.57,8.57,0,0,0-1.13.07c-.66.12-.15.33.15.51a23.73,23.73,0,0,0-2.92.07l-.46,0a2.91,2.91,0,0,0-.16-.5,1,1,0,0,0-.91.54,4.91,4.91,0,0,1-.55,0h0l-.08,0-.06-.06h0l-.06.12c-.11,0-.12.09-.05.12a2.39,2.39,0,0,1-.2.43,1.13,1.13,0,0,1-1,.43c-.37-.14-1.38-.63-1.43-.63a1.56,1.56,0,0,1-.45.4c-.19-.14,0-.68-.29-1.11a1,1,0,0,0,.79,0c1.3.66,1.86-.48,3.54-.78a2.8,2.8,0,0,1,0-1.08.74.74,0,0,1,.24-.36h0a1.27,1.27,0,0,1,.57-.28c-.28-.52-1-.27-1.42-.62a.57.57,0,0,1-.09-.47,1,1,0,0,1,.25-.36c.07,0,.09,0,.07-.08a.5.5,0,0,0,.09-.6,7.2,7.2,0,0,0,2.12-.19c.28-.05.59-.09.93-.13a.57.57,0,0,0,.16.36,31.43,31.43,0,0,1,5.65.22c3.28-.17,1.14-.8,4.42-1-.07-.18-.47-.25-1-.28h0a2,2,0,0,0,.48-.09l0,0c.09-.35-1-.3-2.05-.25-.5,0-1,.05-1.37,0,.05-.06.13-.11.12-.17s-.08-.13-.27-.19a46.2,46.2,0,0,1,6.86,0,5,5,0,0,1,.25.52,1.14,1.14,0,0,0,.49-.35.24.24,0,0,0,0-.15h.08a2,2,0,0,1,.23,1.41,9.68,9.68,0,0,0-2.14.68c-.17.11-.32.23-.32.34,4.72-.09,1.89-.81,6.62-.91A9,9,0,0,0,173,98.7c0-.09,0-.15,0-.23a2.68,2.68,0,0,0,.8,0h.09a1.15,1.15,0,0,0,.41-.08,2.38,2.38,0,0,0,1-.13c.37-.16.13-.41.37-.46a2.34,2.34,0,0,1,.83.1h.35c.19,0,.3,0,.37-.05h1.3a.52.52,0,0,1,0,.11c.52.29,3.52,0,2.87.54a7.31,7.31,0,0,0,2.26-.53c.76-.33,1.08-.76,1-1.17l.07-.06c.05-.08.12-.13.17-.2h0c0,.83.87,1.67,1.51,1.52.28.09.16.65.19,1,.33,0,.79-.1.82.28a.91.91,0,0,1,.37-.47c.38-.25.86-.08,1.27-.35a.66.66,0,0,0,.23-.17c.37-.07.49.17.61.4s.25.46.62.4c.22-.36.33,0,.5.46s.34.71.71.58q.2-1-.6-.78c0-.43,0-.85,0-1.28a1.44,1.44,0,0,1,.64-.41l.14.09c.09,0,.21.09.38.12h0a.42.42,0,0,0,.27,0H193a.89.89,0,0,1-.08-.32,4,4,0,0,1,2.22,1.13h.09a.49.49,0,0,0,.28-.23c.14-.21-.1-.47.14-1a7.49,7.49,0,0,0,.81.38v.93a.28.28,0,0,1,.18-.14h0a1.13,1.13,0,0,0,.57-.18s0-.14,0-.23l.84.35a.62.62,0,0,1,.06-.5c.16-.22.47-.25.52-.4s0-.18-.15-.37a2.88,2.88,0,0,1,.76.22c.18,0,.28-.09.28-.7.45,0,.09.9.19,1.28a1.66,1.66,0,0,0,.57-.83,3.83,3.83,0,0,0,.22-.56l.15.12h0a.5.5,0,0,1,.13.26v.08a.73.73,0,0,1-.22.4c.48,0,1.18.36,1.68.41h.28a.56.56,0,0,0,.21-.09c.46.32.28.87,0,1.52l0,0A18.38,18.38,0,0,1,201,99a3.86,3.86,0,0,0-3,1.06c1.24,0,1.33.15,1.4.37,1.34-.07,2.18-.07,2.89-.07.4,0,.76,0,1.14,0,.42.29.93.55,1.32.84-.45-.1-.78-.23-.63-.38a10.21,10.21,0,0,0-2,.22c-.48.15.59.33,1.82.45a29.93,29.93,0,0,1-4.12.52c2.27.53,2.91-.21,4.91-.44l1,.06c.56,0,.65-.13.56-.13h0a7.8,7.8,0,0,0-1-.21c.5-.18.71-.82,1.2-1a4.62,4.62,0,0,1,1.52.26l.32.08h.63c.47-.82-.29-1.19-.9-1.63.05-.73.77-.55,1.07-.92a2.67,2.67,0,0,1-1-.09c-.72-.21-.35-.73-.32-1.37a1.67,1.67,0,0,0-.57-.23,2,2,0,0,0-1,0,.9.9,0,0,1,0-.4h.09c.25-.12.49,0,.73.28.73-.22-.14-1.08-.2-1.28s.07-.41,0-.5a.88.88,0,0,0-.63-.16c0-.18,0-.32-.26-.33a.14.14,0,0,0-.15.08c-.05.07,0-.16,0-.26a1.48,1.48,0,0,0,1.36,0h.32a1.15,1.15,0,0,1,.11-.31c.19-.43.62-1,.64-1.33l.14,0a.71.71,0,0,0,.26.35.5.5,0,0,0,0,.12.8.8,0,0,1,.5.11h.15c0,.29-.1.58,0,.79a3,3,0,0,0-.06,1,1.22,1.22,0,0,0-1.43,0c-.1.8.29,1,.41,1.52a.71.71,0,0,1,0,.43c-.08.18-.28.24-.37.42a.7.7,0,0,0,0,.43c.33,0,.35.24.62.26a.65.65,0,0,0,.37-.18,2,2,0,0,1,.75-.55.33.33,0,0,1,.27.15c-.32.09-.46.21-.28.37a47.34,47.34,0,0,0,5-.17c0-.26-1.46-.41-2.83-.39a10.57,10.57,0,0,0-1.77.15c.3-.4-.62-.8-1.14-.66,0-1,.94-.87,1.45-1.27-.13-.4-.35-.28-.54-.17s-.38.22-.49-.09c0-.71.83-.45.82-1.23a1.47,1.47,0,0,1,.84.2v.24c.08,0,.12-.12.2-.16s.27.31.4.71c.11,0,.19-.14.28-.2h.05a2.16,2.16,0,0,1,.28.57h0a1,1,0,0,0,.59-.76c.33.1,1.62.15,1.29-.17a7,7,0,0,0-1.29.09.63.63,0,0,0-.17-.43h.12c-.19-.2-.37-.41-.54-.62s-.18-.26-.26-.38a1.09,1.09,0,0,0,.57.09,4.54,4.54,0,0,0,1.47-1.05,2,2,0,0,0,0-.25l.36,0a3.41,3.41,0,0,1,.55,0l-.06.2a1.86,1.86,0,0,0-.06.34v.07a1.5,1.5,0,0,0,0,.3v.09a.94.94,0,0,0,.1.28h0a1.6,1.6,0,0,0,.25.27h0a1.69,1.69,0,0,0,.49.28.39.39,0,0,1,0,.32,1.24,1.24,0,0,1-1,.42h-.6c-.66.5-1,1.1-.64,1.63a.64.64,0,0,1,.62.15c.35,0,.09-.35.21-.51s1-.16.83-.63a4.38,4.38,0,0,0,2.56.72c.21.71.45,1.38,1.23,1.43a6.16,6.16,0,0,0,1,1.81.88.88,0,0,1,.36-.33,1.85,1.85,0,0,1,1.27,0h0l.4.09a1.75,1.75,0,0,0,.22-1c.26.46.43.44.71.43a2,2,0,0,1,.72.1c0-1.29-.49-1.92-1.43-2.05-.41-.64-.84-1-1.26-1a2.41,2.41,0,0,1,0-.38,1.11,1.11,0,0,0-1.49-.13c.16-.19.33-.41.5-.59,0-.76-1-.26-1-1a5.43,5.43,0,0,0-.69.89.41.41,0,0,0,0-.16c-.14.11-.28,0-.41-.25a.42.42,0,0,1-.08.18.71.71,0,0,0-.42.12.35.35,0,0,0-.31.15,2.09,2.09,0,0,0-.17.41.3.3,0,0,1-.16.17.35.35,0,0,1-.28-.07.36.36,0,0,0,0,.27,3,3,0,0,0-.31-.31,1.14,1.14,0,0,1-.73,0,1.79,1.79,0,0,0,.72-.32c0-.55-.16-1.25-.06-1.76h.1c.55,0,.63.13,2.1.13v-.07c.53,0,1.14,0,2-.08a23.87,23.87,0,0,1,2.54-.07,6.44,6.44,0,0,1-1.57-.32c3.78.09.24,1.22,5.5.91-1-.34-2.65-.51-3.11-1.06a56.27,56.27,0,0,0,8,.29c0,.21.11.45.13.76-.15,0-.31-.08-.45-.38a1,1,0,0,0,.07.29h-.58c-.16-.34-.56-.29-1-.24a1.82,1.82,0,0,1-.57,0,2.85,2.85,0,0,0,1.49.32,2.69,2.69,0,0,0-.38,1.9c-.68.17-.88,1-1.06,1.75h-1.23c-.57-.12-.51-1-1-1.25a7.21,7.21,0,0,0,2.43-.45c-.8-.68-.08-1.65-.88-2.32,0,.6-.81.53-1.25.9a.83.83,0,0,0-.29.56c0,.57.64.19.8.55.08.17.05.26,0,.32H227l-.16,0h0a.69.69,0,0,0,.11-.35v-.06s0,0,0,0a1,1,0,0,0-.25-.51c-.57.32-.74,1.12-1.66,1a2,2,0,0,1,.2,1.28c.13,0,.25-.08.37-.32a1.5,1.5,0,0,0,0-.7h0v.72l-.12.17-.07.07a1.58,1.58,0,0,1-.5.34c.27.29.6.47.86.74h-.49c-.47.09-.84.38-.75,1.34a.32.32,0,0,0,.4.14c.17,0,.27-.08.2.64a.33.33,0,0,0,.34-.12l.18-.18a.36.36,0,0,1,.21-.11h0a.78.78,0,0,1,.47.21c.2.31.4.39.61.26a2.84,2.84,0,0,0,.92,0,.72.72,0,0,0,.45-.15s0-.08.07-.09a1.87,1.87,0,0,0,.42-.55,1.29,1.29,0,0,1,.68.26l.08.07c.12,0,.2.19.29.28a.51.51,0,0,1,.1.36.21.21,0,0,0,.18-.09c.06-.07,0-.19,0-.3a1.18,1.18,0,0,1,.07-.2,31.91,31.91,0,0,0,4,.46l-.14,0h0a9.31,9.31,0,0,0,4-.22c.08-.1-.14-.22-.84-.32l-.41,0a2.11,2.11,0,0,1,.55-.3s.06,0,.11,0c.53-.17,1.2-.34,1.67-.51h0a3.22,3.22,0,0,0,.86.5h0a.38.38,0,0,0,0,.1h.16l.51.23a2.46,2.46,0,0,1,.66.44l.15.19a1.87,1.87,0,0,1,.45.9c.14,0,.27-.08.4-.26a.72.72,0,0,0,.07-.38,28.06,28.06,0,0,0,5.72.25h0l-.76-.16.75-.22c0,.1.09.14.12.23a1.42,1.42,0,0,1,1.29-.61,1.43,1.43,0,0,0-.13.28c.52.58,1.12-.38,1.62-.46h.32v0h0v0a4.53,4.53,0,0,0-.39,2.21l-.46.13c.08.24.17.37.27.37-.2,0-.4-.2-.58-.63a8,8,0,0,1,.25.78,5.3,5.3,0,0,1,.89,1.1,5.78,5.78,0,0,1,.39-1,5.08,5.08,0,0,1,1.47-1.59V100h.09l.09-.08a16.63,16.63,0,0,1,2.42.36,2.1,2.1,0,0,1-1,.17.63.63,0,0,0,.48.2,2.4,2.4,0,0,0,.8-.08l0,0c.63-.37,2.67-.43,4.47-.61a7.44,7.44,0,0,1,1.1-.72,10.57,10.57,0,0,1,1,1.53,2,2,0,0,1,.61-.23h.1c1.26.23.7,1.37,2.13,1.19v.88c-.31.41-.47.41-.75.4a2.11,2.11,0,0,0-.7.09.29.29,0,0,0-.08.13l.28.58a17.35,17.35,0,0,1,1.57,3.93c0,.17.09.37.13.55.18,0,.4-.09.63-.09.06-.5.13-1,.2-1.43-.22.09-.28.38-.53.45-.1-1-.83-1.17-1-2h.41a3.68,3.68,0,0,1,.21.45.44.44,0,0,0,.06.16,2.34,2.34,0,0,0,.09.24h.1a2.23,2.23,0,0,1,.67.59c.14-.85.28-1.64.45-2.34l-.18.09a1.62,1.62,0,0,0-1.2-.18c0-.08,0-.13,0-.14s.36,0,.4-.11c.15-.43-.2-.66-.2-.76s.13-.43.18-.73a2.42,2.42,0,0,0,.76,0,1.56,1.56,0,0,1-.45-.4l-.3.09a1.8,1.8,0,0,0-.1-.33l.05.1a1.41,1.41,0,0,0,.78-.41c.49-.55.12-1.36-1-1.06,0,0,0,.13,0,.2a3,3,0,0,0,.11.88,3.67,3.67,0,0,0-.62-1,1.22,1.22,0,0,0,.07-.17,1.18,1.18,0,0,0-.17-.75c.58-.27.83,0,1.08.33s.47.57,1,.37a.9.9,0,0,1-.38-.91c0-.07,0-.12,0-.17l0-.13.05-.19a1.18,1.18,0,0,0-.08-1.08c-1.06.15-1.22-1.23-2.1-1.37a1.09,1.09,0,0,1,1.16.27s.06.09.06.17,0-.08,0-.09l.06.06a.49.49,0,0,0,.68-.06c-.63-.17-.61-.7-.42-1.22h.36c.2-.12.41,0,.61.38a1.24,1.24,0,0,0,1-.36l.42.55c-.05.45-.3,1-.34,1.52a.68.68,0,0,1,.41.52c.14,0,.28-.1.41-.32a1.83,1.83,0,0,0,.08-.25c.06.44.23.75.59.84l.29-.24c.2-.58,0-1.45-.57-1.53.14-.22.28-.32.42-.29-.15-.36-.32-.58-.49-.64a.33.33,0,0,1,.25-.16h0a.61.61,0,0,1,.29.32l0,.1c.06.2.09.4.14.58a1.18,1.18,0,0,0,.07.2.1.1,0,0,0-.12.09h.26a.82.82,0,0,0,.45.16l0-.14h.08a.61.61,0,0,0,.07-.14h0c0-.14,0-.24,0-.21l0,0a1.87,1.87,0,0,0,.08-.28c.23,0,.46,0,.68,0,.1.72,1,0,1,1a2.88,2.88,0,0,0,.81-.23c-.36-.26-.43-.46-.33-.58a1,1,0,0,1,.73-.2c.05,0,.11.09.15.15s.14-.09.21-.14H275c.16-.09.22-.18.2-.26h-.06a.51.51,0,0,0,.1-.21c.17-.93-.8-2.24-1.4-1.11a1.69,1.69,0,0,0,0,.55,1.54,1.54,0,0,0-.57.36,5.2,5.2,0,0,0-.62-.32,4.48,4.48,0,0,1,2-1.41,2.24,2.24,0,0,0-1.25-.93.45.45,0,0,1,.1-.43c.29-.37,1-.52,1.14-1,.19-.09.37.06.54.43a.3.3,0,0,1-.4.08,2.22,2.22,0,0,0,.06,1h-.2a13.11,13.11,0,0,1,.9,1.18c-.52,0-1,.1-.57.21s.59,0,.68,0l.13.2-.43,0c-.05.29.26.42.75.46.1.13.21.26.31.37a2,2,0,0,0,1.1.26,1.22,1.22,0,0,1,.87.22.39.39,0,0,1,0,.24c-.11.19-.45.17-.76.15s-.49,0-.52.08,0,0,0,.13a2.12,2.12,0,0,0-1.7-.54c.41.16.51,1,.27,1.52.88,0,1.54.6,2.24.4a.73.73,0,0,0,.31-.14c.14-.14-.13-.27.05-.47a2.31,2.31,0,0,1,.69-.46c-.19.16-.3.44-.29,1a3.86,3.86,0,0,1,1.65.28h0c.12,0,.16-.2.18-.37a1.25,1.25,0,0,1,.24,1.19L279,99h0a31.12,31.12,0,0,1,3.15.94.82.82,0,0,0,.34.09c.27.06.55.11.87.15a24.81,24.81,0,0,0,4.22-.39.31.31,0,0,1,.05.1c.07.21-.26.25-.45.38.33.26.66.12,1-.41l.06-.13.5,0c-.05-.1-.23-.15-.39-.23l.09-.21a1.37,1.37,0,0,1,.3-.45,1.62,1.62,0,0,0,1.66.08.56.56,0,0,0,.17.09c.06.76-.63,1.17-.76,1.84,0,.22.19.2.36.16s.24-.06.36.16c.42-.72.87-1.1,1.32-1.14a.69.69,0,0,1,.28.35h.39a2.64,2.64,0,0,0,.69.9s.06,0,.08,0a.35.35,0,0,0,0-.13s0-.29,0-.32a1.63,1.63,0,0,1,1,1.4c-.09.54-.37.59-1.15.68.06.47.41.45.76.43s.71-.05.77.43a.46.46,0,0,0,.41-.22,4.66,4.66,0,0,0,.19-.84.12.12,0,0,1,.21,0c.07,0,0-.12.05-.18s.06-.09,0-.15c-.13-.37-.86-.85-.8-1.52-.32.18-.27.53-.63.7a2.51,2.51,0,0,0,0-1,.42.42,0,0,0,.36.09,1.65,1.65,0,0,0-.16-1h0l.29.2c.06,0,.07-.12.1-.19.54,0,1,0,1.5.07a8.51,8.51,0,0,0,3.48-.21,16,16,0,0,1-4.23-.66,8.93,8.93,0,0,0,1.55-.14,1.88,1.88,0,0,0,.91-.37c-.48,0-.85-.08-1.17-.09-.09-.2-.36-.18-.6-.2a.7.7,0,0,1,.19-.66.82.82,0,0,1,.49,0l-.3.13c-.3.28.45.53,3.27.41,0,.2,0,.4,0,.59.5-.19.61.09.73.37s.18.46.5.43a2.44,2.44,0,0,0-.29.27c-.11.18.21.09.27.75.53-.86,1.14-.21,1.85,0,0-.24,0-.37.07-.44a.42.42,0,0,1,.36-.07.89.89,0,0,0,.36,0c.08,0,.17,0,.25-.2.36,1,1.1,1.52,1,3a1.39,1.39,0,0,1,.44-.17.31.31,0,0,1,.19,0,.55.55,0,0,1-.07.43c-.14.16-.41.16-.53.35a.59.59,0,0,0,0,.47c.2.39.41.57.61.53,0,1-.11,1.75-.85,1.77-.35-.37,0-.94,0-2a.31.31,0,0,0-.32,0c-.19.13-.07.68-.11,1a3.86,3.86,0,0,1-.9.07,1.68,1.68,0,0,0-1.58.64c0,.84,1.23.22,1,1.3.42,0,.41-.67.83-.75a4.94,4.94,0,0,1,1,1.31c0,.08,0,.11,0,.11h-.13c-.09,0-.16,0-.06.42a3.94,3.94,0,0,0,.19.77.56.56,0,0,0,.27-.23h0a.5.5,0,0,1,.32-.23c0,.51-.57.31-.42,1-.18-.34-.37-.5-.56-.49a.9.9,0,0,0-.27.21.74.74,0,0,1-.4-.78,8.26,8.26,0,0,1-3.29-.58,11.82,11.82,0,0,1,.26-3.3.27.27,0,0,0-.34.09h-.07a.25.25,0,0,1-.21.11c-.49,0,.42-.7-.59-.52h0c.1-.17.2-.26.31-.26a1,1,0,0,0,.83-.23.57.57,0,0,0,.12-.5.71.71,0,0,1-.42.32s-.06.08-.09.08c-.54.1-1.09-.61-1.15-1.45-.34.07-.68.13-1,.17h0a.71.71,0,0,0-.59.8,2.35,2.35,0,0,0-1-.53,2.06,2.06,0,0,0,.38,2.06,4.88,4.88,0,0,0,.85-1.53h.12a3.26,3.26,0,0,0,.4,2.4h.16c-.12.09-.25.19-.38.27h-.08l-.47.3c-.2,0-.15-.32-.2-.5-.59.52.27,1.63-.16,2.12a.51.51,0,0,1-.29.17c0,.24.24.19.41.26,0,.19-.09.29-.14.29a1.1,1.1,0,0,0-.68-.33c-.2.45-.09,1.27-.44,1.53.05.68.86.47,1,1a.67.67,0,0,1,.34-.28s.06,0,.1-.09a2,2,0,0,1,.84.09,2.81,2.81,0,0,0,1.19.08c0-.37,0-.72-.19-.78a1.13,1.13,0,0,1,.4-.32c.07,0,.13-.14.21-.17.27,0,.53.53.35.73a.32.32,0,0,1-.35,0,2.39,2.39,0,0,0,1.43.55c.53,0,.28,1,.81,1,0,.16,0,.24-.09.27s-.49-.11-.65,0-.13.11-.09.28c-.22.93,1,.14.6,1.3h.7a2.36,2.36,0,0,1,.53-.36c.53.46-.41,1.19-.23,2,.44.33.51,1,1,.86a.39.39,0,0,0,.26,0c-.12.81-.63,1.12-.65,2,.31,0,.63.07.94.12h0a1,1,0,0,0,.7-.35c0-.5,0-1,0-1.52-.37,0-.43-.32-.82-.27-.11-.68,0-1,.33-1.18a1.45,1.45,0,0,1,.92,0c.29-.59,0-.47.23-1.28a.2.2,0,0,0-.23,0c-.15.08-.13.54-.2.55-.46.16-.66-.67-1.22-.77a.59.59,0,0,1,.26-.46c.15-.08.32,0,.52,0h.06c-.08-1,.64-.89.84-1.53a1,1,0,0,0,1.07,0l.21-.1h.12c.13,0,.26-.08.46-.08.23-1,1.14-2.13.25-3-.15-.79.36-.74.22-1.52-.35.11-.41-.13-.46-.38s-.1-.42-.35-.39a1,1,0,0,1,.28-.14,1,1,0,0,1,1.28.67h-.83c.16.41,1.87.42,2.87.2a1.13,1.13,0,0,0-.6-.14c.59-.07,1.14,0,1.3.56,0,.16,0,.23-.1.25h-.29c-.21,0-.38,0-.23.47-.28-.16-.22-.5-.37-.46h-.05a.55.55,0,0,0-.19.15c.43.57,1,1,1,2.08.16-.09.22-.22.42-.26a.77.77,0,0,1,.61.27c.08,0,.17-.07.25-.24a.56.56,0,0,1,.17-.26.75.75,0,0,1,.49,0,.72.72,0,0,0,.54,0s0-.43,0-.5a1,1,0,0,1,.63-.28.44.44,0,0,0,.4-.21,1.4,1.4,0,0,1-.2-.78,1.09,1.09,0,0,0-.44,0c-.3,0-.61.09-.58-.27-.37,0-.48.43-.43,1-.53-.18-.44-.74-.67-.64a1.71,1.71,0,0,0-.36.35c-.23,0-.16-.46-.19-.76a.35.35,0,0,1,.2-.14h.05c.17,0,.33.08.51,0a.56.56,0,0,0,.21-.22h.07c.21-1.34-.92-1.08-1.21-1.82a.18.18,0,0,1,.14-.2h.26a1,1,0,0,0-.39-.9h1.58c.31-.68-1.37-.9-2.87-1.16a.41.41,0,0,1,0-.16,1.61,1.61,0,0,0,1.33-.8,4.83,4.83,0,0,0,1.14,0,1.56,1.56,0,0,0,.85,1.07,11.61,11.61,0,0,1-.17-2.56c-.29.24-.35.12-.44,0s-.19-.27-.59,0c.44-1.22-.32-1.53-.36-2.71.06.29.15.53.57.4a2.08,2.08,0,0,0-.07-1,7.29,7.29,0,0,0,2-.58l.18-.06a4.87,4.87,0,0,1,.52-.12,1,1,0,0,1,0,.12.39.39,0,0,0,.46-.11.31.31,0,0,0,0-.1l.44,0-.43-.08c0-.19-.13-.37-.15-.31a1.72,1.72,0,0,1,.07-.21,7.2,7.2,0,0,0,1.22.19,3.57,3.57,0,0,0,1.13,0c.61-.09,1-.32,1.3-.32a.59.59,0,0,1,.46.15c1-.12.7-.24.1-.36.1-.31-1.28-.28-1.49-.52,2.95.15,3,.66,3.55,1a4.66,4.66,0,0,0,.65,0,8.76,8.76,0,0,0,3.22.36.76.76,0,0,0-.35-.31c1.61,0,3.22-.08,3.13-.33a10.4,10.4,0,0,0-3.52.14,5,5,0,0,0-.76-.21l.26-.08a4.71,4.71,0,0,1,1-.11c-.12-.08-.25-.14-.37-.21h.37v-.23h.92v-.34h.05c.05.11.22.17.39.23s.35.14.32.28a5.3,5.3,0,0,1-1,.07,8.53,8.53,0,0,0,2.42,0l.75.08a5.8,5.8,0,0,1,0,.59c.86-.21.81.71,1.23,1a1.16,1.16,0,0,0,.68-.14l.36-.16a1.26,1.26,0,0,1,.82-.2,1.51,1.51,0,0,0-.13-.29.65.65,0,0,0,.29-.6.27.27,0,0,0,.26.12,1.5,1.5,0,0,0,0-.3,2.54,2.54,0,0,1,1,.14,2.26,2.26,0,0,0-.06.82c-.25,0-.49,0-.74.06a6.53,6.53,0,0,0,.77.14.33.33,0,1,0,.6.06q.35,0,.69,0a2.76,2.76,0,0,0,.27.81c.29.59,1.11.61,1,1.29h.23a.35.35,0,0,1-.21.1h-.59a1.42,1.42,0,0,0,1.35.37c.48,0,.92-.08,1.22.48h.18a1.55,1.55,0,0,1,.08.23.94.94,0,0,0,.14-.26,1.1,1.1,0,0,0,.53-.23,2.1,2.1,0,0,1,.57.5c.08-.2.17-.32.27-.33.28-.19.71-.19,1-.4a.61.61,0,0,0,0-.14,1.46,1.46,0,0,1,0-.41v-.06h0v0c.05-.4.22-.72.25-1l.26-.27h.47a.93.93,0,0,0,.36-.26l.12,0a2.49,2.49,0,0,1-.12,1.08h0c.66.81,1.86,1,2.66,1.6a1.49,1.49,0,0,1-1.24.47c.1.55.45.52.85.41l.58-.18a.43.43,0,0,1,.44,0c.11,0,.13-.12.13-.15s0,0,0,0c-.06-.2-.61-.51-.34-1.1.31-.08.63.08.93.48a.38.38,0,0,0,.29-.2,2.15,2.15,0,0,0,2.46,1.08c0-.1,0-.21,0-.31a2.34,2.34,0,0,1,0-.26c.18-.73,1-.67,1.41-1.1a1.08,1.08,0,0,0,.25-.85.92.92,0,0,0,.45.4H352a1,1,0,0,1,1,0c-.17.25-.34.38-.51.38s-.08,0-.11.12c-.19.71.59,2.18,1.82,1.82a.77.77,0,0,0,.1-.25,1.59,1.59,0,0,1,.12-.27.94.94,0,0,1,.1-.23c.3-.46.62-.54.93-.24.4-1.14-.79-.92-1.22-1.3a2.24,2.24,0,0,1-.36-.66.3.3,0,0,0,0-.1,8.72,8.72,0,0,1,1.57.51h0a6.36,6.36,0,0,0,.32,1l.06.16a.56.56,0,0,0,.31.09h0a1.53,1.53,0,0,0,.64-.28h.1c.38,0,.24.48.4.57a1.28,1.28,0,0,0,.43.1,1.05,1.05,0,0,1,.75.17s0,0,0,.08h-.65s0,0,0,.07c-.23.32.44.49,1,.5h.4a1.33,1.33,0,0,1,.89.2,2.6,2.6,0,0,1,.9,2.33.41.41,0,0,1-.34-.09c-.33-.1-.51-.26-.35-.53-.73.18-.93-.08-1.1-.35l0,0a.65.65,0,0,0-.86-.31c.16.29.62.47.94.72a.78.78,0,0,1,.24.27c-.23.12-.44.24-.29.36h.09l-.29.11h-.22a.06.06,0,0,0-.06,0h-.07a.36.36,0,0,0,.16.14,1.36,1.36,0,0,1-1.13-.14h-.45a.67.67,0,0,0,.21.76c.6.46,2.21.14,3.14.5.4-1.13-.77-.62.89-1.2.24-.48-.23-.88,0-1.41a1.08,1.08,0,0,1,.4-.47,1.94,1.94,0,0,0,.36-.34c.06-.09.06-.12,0-.18a3.33,3.33,0,0,1,1,.09,6.87,6.87,0,0,0,1.57,0c.13-1.1,1.2-.87,1.66-1.53h.06l.05.1a.24.24,0,0,0,.3,0,4,4,0,0,0,2.42-.24,4.14,4.14,0,0,1,2.28-.27,2.56,2.56,0,0,1,.8-.59,3.84,3.84,0,0,1,1-.26,1.57,1.57,0,0,0,.26.69.9.9,0,0,1,.16.57c.14,0,.3.08.47,0a6,6,0,0,0,.82-.18c.09,0,.15,0,.15.15s.07,0,.1,0h.09a2,2,0,0,1-.22-.71c0-.22.08-.19.26-.2a3.42,3.42,0,0,0-1.23-.79,4.45,4.45,0,0,1-.54-.61.42.42,0,0,0,0-.39c-.09-.13-.21-.07-.32-.1s-.14-.09-.21-.14a.71.71,0,0,0-.81-.13,1.26,1.26,0,0,0,.34-.31l-.82-.2-.36-.09c-.21.36.23.62.2.7h-.27l-.52-.11c-.42.69.28,1,.3,1.52-1.08.61-.81-.6-1.49-.79.32-.4.66-.54,1-.41a.37.37,0,0,0-.14-.3h-.39c.07-.1,0-.19-.17-.27h-.31s0-.08,0-.12l-.13.12h-.24a1.25,1.25,0,0,1-.7-.56,12.64,12.64,0,0,0,1.84-.32h.05a1.38,1.38,0,0,0,.47-.16,5.87,5.87,0,0,0,1.25-.57l.11-.06h0a2.14,2.14,0,0,1,1,.28,2.83,2.83,0,0,0,1.41-1.14,1.17,1.17,0,0,0,.06-1.34c.19-.21.86.52,1.6.67a1.14,1.14,0,0,0,.77-.1c.18-.43-.68-.46-.21-1a1.16,1.16,0,0,0,1.07.26l.19-.07a1.75,1.75,0,0,1,.33,1.06,1.14,1.14,0,0,0,.1-1.25l.28-.16H379c.54-1-1.08-1.53.57-2a.17.17,0,0,0-.1,0,2.4,2.4,0,0,0-1.63,0l-.93.18a1,1,0,0,1-.73.9l-.28.07a2.44,2.44,0,0,0-.84.23,8.67,8.67,0,0,1-.2-1.69H375c0,.13,0,.27,0,.4a.84.84,0,0,0,.35-.3h.32a1.7,1.7,0,0,1,.52.35c0-.1.07-.14.09-.21.31-.49.62-.7.94-.64a.38.38,0,0,0,.33-.11.61.61,0,0,0,.31-.53c1,0,1,.47,1.67.64,1-1.07-.46-1.25-.4-2,1.36.44,1.87,1.19,1.21,2.36a.51.51,0,0,0-.39-.12c-.2.47.35.68.39.85s0,0,0,0a.25.25,0,0,1-.16.14c0,.14.07.18.14.17h.06a.37.37,0,0,0,.17-.13l.09-.15a2.12,2.12,0,0,0,.11-.21s0-.11,0-.15a.69.69,0,0,0,0-.25.38.38,0,0,1-.21-.07,6,6,0,0,0,1,0c.52-.6-.61-.6-.11-1.2a1.18,1.18,0,0,0,.6.35,1.64,1.64,0,0,0,.88,0c0-1.08.89-1.42.78-2.41.11.17.22.25.33.23a.44.44,0,0,0,.36-.11c.22-.1.4-.15.4.37.21-.09.45-.15.67-.25h1a.75.75,0,0,0-.15-.77.43.43,0,0,0-.11-.12h0l-.36-.28a.53.53,0,0,1-.17-.32c0-.14.08-.26.12-.38.27,0,.45,0,.57.12s.29.38.47.55h0a.83.83,0,0,0,.46.17c.16,0,.27-.21.4-.32a3.08,3.08,0,0,0,.56-.58,1.49,1.49,0,0,1,.25.61c.52-.2.14-.65-.07-.9.07-.12.16-.23.23-.36a1,1,0,0,1,.45.13,5.1,5.1,0,0,0,.73.3,1.18,1.18,0,0,0-.1.25c0,.29.29.36.36.1a1.91,1.91,0,0,0-.06-.33.63.63,0,0,0,.41-.21h.08a3.25,3.25,0,0,1,.43.9h-.38l-.31.1h-.06a2,2,0,0,0-.32.26l-.3.29c-.08,0-.16-.07-.22-.07-.29,0-.37.44-.8.56h-.39a1.55,1.55,0,0,0-1,.08.54.54,0,0,0-.14.5c0,.24,0,.24.1.24s.42-.23.72-.27H388a.45.45,0,0,1,.34.07c-.13.52,1.34.46.79,1.11a6.56,6.56,0,0,0,1.47.17,2.92,2.92,0,0,0,2.86-1.72c.22.11.43.37.32.46a.28.28,0,0,1-.22,0c.07.34.29.29.55.23a.91.91,0,0,1,.63,0c.35.19.27.69.6,1a.85.85,0,0,0,.49.22c.78-.52-1.31-1.53-.41-2.68-.57-.45-1.52-.75-2.07-1.19a.17.17,0,0,0-.21,0c-.08.1.15.36-.28.3h-.29c-.42-.17-.05-.61-.63-.72h-.37a1.88,1.88,0,0,0-.19-1.23,4.47,4.47,0,0,0-.77-1.07,1.31,1.31,0,0,1-.1-.65,1,1,0,0,0-.22.3l-.14-.25c.31-.54.11-1.37.33-2.1a.92.92,0,0,0-.35.19,2,2,0,0,0,.13-.25,2.12,2.12,0,0,0,.11-.21,1.27,1.27,0,0,1,.39.12,5.78,5.78,0,0,0,.89.29,6.34,6.34,0,0,0-.26.73l-.73-.36c-.24.27.06.85.34.93.09,0,.18,0,.27-.1-.05.26,0,.39.11.48-.05.1-.08.21,0,.27a.28.28,0,0,0,.15.08h.34a1.13,1.13,0,0,0-.58.58c-.16.8,1.6.94,1.89,1.61a.36.36,0,0,0,.32,0,2.28,2.28,0,0,0,.38-.5.47.47,0,0,1,.29-.14c.42.2,0,.86-.33,1.24,0,0,0,0,0,0a1.08,1.08,0,0,1-.32.24H394a.55.55,0,0,1,.22.57c.07,0,.15,0,.21-.19a.56.56,0,0,0-.14-.41h.61c.51,0,.94.23,1,.66s.2.37.36.32.29-.12.24.41h.13a.75.75,0,0,0,.07.44.73.73,0,0,0,.48.11c.36-.11.34-.75.57-1a2.84,2.84,0,0,0,.91-.23h.09a1.33,1.33,0,0,1,.79,0,.9.9,0,0,1,.55.15c.1,0,.2,0,.29-.13s-.21-.47-.22-.76.05-.31.21-.45h.24c0,.52.29,1.24,0,1.72a1.7,1.7,0,0,0,.7-1.63,2.5,2.5,0,0,0,.68-.16h.15c.19.23.4.29.6.18.4.73-.85,1.39-.89,1.4a1.54,1.54,0,0,1,.2.76c-.08.19-.17.29-.26.3h-.08c-.11,0-.22.11-.29.17a6.22,6.22,0,0,0,.41,1.52c0,.66-.33.81-.63,1-.89.09-.93-.88-1.23-1.52a.27.27,0,0,0-.36.09c-.15.29.23,1.05.36,1.19a1.42,1.42,0,0,0-.08.18.61.61,0,0,0-.07.14v.09h-2.68a5.21,5.21,0,0,0,2.32.55c0,.06-.07.13-.11.2a1.31,1.31,0,0,0-.21.36c-.24,0-.37,0-.41-.26-.52.83,1.36.87,2.26.8,0-.14.08-.2.12-.16s.09.1.09.17c.21,0,.42-.3.62-.77a1.11,1.11,0,0,0,1,.27c.25,0,.3.18.35.4s.12.49.47.38c0-.26.25-.2.41-.26a1.85,1.85,0,0,1,.15-1,2.46,2.46,0,0,1,1.3-1c.1-1.13-.55-1.34-.81-2a9.2,9.2,0,0,0,.55-1.52h0c0-.11,0-.23.07-.35h0a2.67,2.67,0,0,1,.54.36,6,6,0,0,0,.77-.36,1.39,1.39,0,0,0-.44,1,4.17,4.17,0,0,0,.31,1.44,4.21,4.21,0,0,0-.28,1.11,8,8,0,0,0,.26,3.47c.1.06.2,0,.3-.2s.09-.65.27-.82a.43.43,0,0,1,.46,0c-.28-.39-.91-.4-.81-1.28.16-.56,1.28,0,1-1,.39-.13.47.13.54.38s.14.49.48.4c0-.32.18-.38.4-.41a3.09,3.09,0,0,0,.8-.11h0c.15,0,.3-.2.44-.47,0-1.24-.36-1.86-.38-3.4a.55.55,0,0,0,.43-.12A1.26,1.26,0,0,1,412,84V74.54H412V0ZM189.34,105.68l-2.84.15h0l.33.07a17.67,17.67,0,0,1-2.05-.15,4.14,4.14,0,0,0-.7.06c-1.79-.83-3.86-.27-6.17,0h0c.83.38,3.46.17,5.86,0a.17.17,0,0,0-.1.15.21.21,0,0,1,0,.11c0,.1-.13.22-.73.22h0a4.33,4.33,0,0,0,1.14.12c1.38,0,3.48-.25,5.07-.31a.69.69,0,0,1,.17,0,2.38,2.38,0,0,0,.37-.06l.1,0C190,106,189.5,105.83,189.34,105.68Zm.49.49h-.14l.09,0Zm-67-2.59c-1.88,0-4.21-.46-5.34,0,.78,0,1.59.16,2.38.23a6.43,6.43,0,0,0-1.12.46.28.28,0,0,0-.12.28.31.31,0,0,1-.05.1,1.32,1.32,0,0,0,.56.36c.08,0,.07.09.15.09v0c1.42-.15,1.7-.39,1.7-.66a1,1,0,0,0-.21-.42.66.66,0,0,1-.12-.17,5.57,5.57,0,0,0,2.15-.24ZM189,108.37h0a7.52,7.52,0,0,0,2.11.3h.15c.23-.1.23-.18.23-.23h0a.05.05,0,0,1,0,0C191.46,108,188.7,108.14,189,108.37Zm-77,9.07c0,.06.19.13.92.2a17.76,17.76,0,0,1,2.51-.32h0A10.34,10.34,0,0,0,112,117.44Zm-6-10.56c1-.13,1.37-.29,1-.54,0-.06,0-.06,0-.06h0C105.94,106.44,105.42,106.61,106,106.88Zm-3.4-3.72h0c.12.2.64.26,1.32.25s1.41,0,2.14-.08a11.69,11.69,0,0,1-1.55-.27Zm-3.1,1.42a9,9,0,0,0,1,0c.17,0,.17,0,.17-.13-1-.68-8.28-.17-10,.19a4.81,4.81,0,0,0-.53-.2h0c-1.5.12-1.47.27-1,.37a3.45,3.45,0,0,0,1.69,0c.74.29,3,.07,3.24.54a1.09,1.09,0,0,1-.43.18,12.39,12.39,0,0,0-2.43.2c.37,0,.73,0,1.09,0-.74.11-1.53.21-2,.34l0,.05c-.93.41,2.51.2,4.07.48,1.14.2,1.06.67,3.48.55a3.32,3.32,0,0,0,1.53.18s-.05.06,0,.08.09.12.3.2c2.77-.57,3.54-.29,4.51,0h0a7.86,7.86,0,0,0,2.31.32c.3,0,.63,0,1,0a.89.89,0,0,0,.45-.12c.15-.15-1-.31-1.7-.38l.3,0c.63-.05.88-.12.88-.17a8.69,8.69,0,0,0-3.37,0c.06-.16-.3-.26-.57-.38-1.12-.47-4.53-.7-7.17-1l.23-.06c-.8-.06-1.36-.13-1.84-.18a7.66,7.66,0,0,1,2.86-.22c1.46,0,3,0,3.4-.28-.11-.48-2.47-.23-3.11-.54C98.47,104.55,99,104.56,99.5,104.58Zm3.08,4.12c1.7-.17,4-.29,2.86-.7a13.72,13.72,0,0,0-3.12.43h0C102.26,108.51,102.32,108.59,102.58,108.7ZM88.93,97.44h0c-1.07-.46-5.23-.14-3.46.37A21,21,0,0,0,88.93,97.44Zm1.4,5.18.07,0a7.06,7.06,0,0,0-2.1.23h0c-.06.15.53.21,1.21.22,1,0,2.19-.14,1.81-.32.93,0,1.55-.39.27-.59h0C90.66,102.29,91.57,102.55,90.33,102.62Zm-.93,4.78h-.08l.08,0Zm-5.29-8.22,1,0a8.79,8.79,0,0,0,3.25-.56,9.75,9.75,0,0,1,4.25-.53l0,0a3.69,3.69,0,0,0,1-.06c.15-.08.07-.21-.54-.43a7.4,7.4,0,0,0-1.15.16l-.81-.42c-2.67.36-3.24.22-6,.7l.23.06a5.06,5.06,0,0,1,.87.23c.65.3,0,.59-2,.83Zm.92,5.31a.19.19,0,0,1-.12-.07h-.09a.17.17,0,0,0-.1,0v-.11c-.89,0-1.27.08-1.27.15a7.28,7.28,0,0,0,2.31.35l.57.13h0a5.28,5.28,0,0,1,.77.24c1-.08,1.38-.22,1.25-.35a3.61,3.61,0,0,0-1.55-.34c-.46.05-.77.09-1,.13Zm17.37,3h0l-2.81.15.9.49a9.59,9.59,0,0,0,2.07-.23C102.88,107.82,102.82,107.67,102.4,107.51Zm-2.83.16h0Zm-6.78-.73a4.82,4.82,0,0,0,.91.37,7.31,7.31,0,0,1,2.19,0h0c.15,0,.15-.08.15-.08C95.79,107.05,91.84,106.42,92.79,106.94Zm-6-2.45Zm-47.17-13h0l0,0S39.61,91.48,39.62,91.49Zm4.75-.36,0,0s0,0,0,0h0l0,0S44.37,91.12,44.37,91.13Zm-4.77.31a.05.05,0,0,0,0,0h0v0Zm0,.06h0l0,0Zm44.49,7.68ZM19.45,90.93a2,2,0,0,0,.64.14A.54.54,0,0,0,19.45,90.93Zm-.06,0,.06,0-.08,0ZM52.7,95.53c.29.16,3.15,0,2.86.27.79,0,.45-.17,1.45-.17C56.61,95.33,54.3,95.53,52.7,95.53Zm34.92,10.66c-.08-.24-1.14-.15-2.2-.06s-2.11.18-2.19-.06c-1.91.13-3.1.42-2.64.64a4.2,4.2,0,0,0,1,.18h0c1.08.41-3.42.33-1.59.8,5.22-.27,3.59-1.12,7.59-1.5ZM52.7,95.53h0s0,0,0,0Zm-3,0a0,0,0,0,0,0,0h0Zm3.62-.16c-2.33-.14-3.82-.37-6.47-.46.18.29,2.71.3,2.84.61h.55A28.88,28.88,0,0,0,53.37,95.32ZM83.31,89.5h0l.06,0Zm31.17,17.63a10.65,10.65,0,0,1-1.58.27h0a13.89,13.89,0,0,1,1.57.26c.71-.06.64-.21,1.59-.26A11.72,11.72,0,0,1,114.48,107.13Zm-2.59-2h0Zm0,0h0a22.32,22.32,0,0,0,2.58.4c.4,0,.79,0,1.18-.07C114.36,105.4,114.22,104.92,111.91,105.17Zm.09,12.27Zm1.53-5.06h0Zm-4,.62,2.8-.2c-.1-.48-2-.34-2.46-.71a5.5,5.5,0,0,0-1.45.19c-.28.14,1.32.29,1.32.56l-.06.06A.31.31,0,0,1,109.53,113Zm4-.62a7.35,7.35,0,0,0,1.32.11c1.35,0,2.41-.31,2-.54a4.09,4.09,0,0,0-1.47-.2h0C113.16,111.81,115.25,112.26,113.56,112.38Zm6.51-.36-.61-.31-1.89.11.61.32h0Zm51.06-6.26h0Zm-53,8h0Zm-1.85.75a.43.43,0,0,0,.06-.27h-.07c0-.08-.14-.18-.44-.28-.24-.29,3.1-.27,3.42-.51.12-.08-.09-.19-.88-.35-.37.11-.74.2-1.12.28-1.53-.3-5.1.09-4,.52h.07a.5.5,0,0,1,0,.13c-.09.21-.3.33,0,.63h0c.2.2.73.34,2,.34.62,0,1.4,0,2.4-.1C116.31,114.81,116.19,114.63,116.25,114.55Zm6.15-1.41a4.38,4.38,0,0,0-2.77,0l.45.25c-.65,0-1.16.27-2,.4a2.66,2.66,0,0,0,1,.15,16.15,16.15,0,0,0,2.78-.36c-.25-.06-.48-.11-.69-.14,1.08-.06,1.35-.18,1.22-.29ZM70.19,91.64s0,0,0,0h0l0,0S70.18,91.64,70.19,91.64ZM91,111.76c-.25.28-2.57.4-1.58.8C92,112.48,92,112.16,91,111.76Zm10.76,3.78h0ZM91,111.76Zm14.53,7.75a6.19,6.19,0,0,1-1.82-.12h0c-1.13.12-.94.37-2.2.48a3.43,3.43,0,0,0,1.06.13c1.38,0,3.58-.29,4.94-.29A4.42,4.42,0,0,0,105.48,119.51ZM88.87,108l-.57-.13c-.72-.16-1.13-.32,1-.42-.21-.05-.42-.08-.63-.11l.24-.06c.13-.07,0-.14-.57-.22h0a23.25,23.25,0,0,0-2.51.31l.17,0h0c-.94.25-1.08.75.17,1.11L89,108.3C89.87,108.19,89.43,108.07,88.87,108Zm-.29,5v0h0c-.56.22-3.4.24-1.91.64C88.67,113.52,89.25,113.32,88.58,113Zm16,1.83c-1.69,0-1.7.27-1.69.34s0,.16-.09.22a2.72,2.72,0,0,1-1.06.14h0a2.92,2.92,0,0,0,1.06.13c1.38,0,3.56-.28,4.92-.28C106.81,115.15,104.47,115.41,104.58,114.83Zm3.78-2.22c-.08-.16,0-.3-.27-.47a16.16,16.16,0,0,1-4.11,0,15.72,15.72,0,0,0-3.43-.08c.9.31,3.14.18,4.06.48a4.43,4.43,0,0,1-2.17-.06,4.55,4.55,0,0,0-2.23,0c-.36.12-.46.22-.36.3a.16.16,0,0,0,.08.06,6,6,0,0,1-1.31.26l-.12,0v0a19.41,19.41,0,0,0-3.05,0,13.35,13.35,0,0,0,1.67.2l-.33.07c-2,.17-2.27.48-3.91,0h0c-.18.22-1.52.34-1.78.55,0,0,.07,0,.08.1s0,.09.1.15a32.3,32.3,0,0,1,6.81-.09l-1.55.09c.14,0,0,0,.14.11s.26.18.2.18h0A18.29,18.29,0,0,1,94,115h1c.93,0,1.7,0,2.51-.08,1.24-.06,2.56-.12,4.62,0a.46.46,0,0,0,0-.2c1.21,0,2.52-.18,4-.33-.26-.53-3.32-.17-3.44-.68-.07-.29.76-.24,1.84-.19a14.4,14.4,0,0,0,2.86-.08c.31.14.3.23.25.3l-.1.1c0,.09.08.09.08.09a6.87,6.87,0,0,0,1,.14,1.12,1.12,0,0,1,0-.63C108.73,113.18,108.44,112.76,108.36,112.61Zm1.47-.56,0,0h0ZM82.39,100.36a6.94,6.94,0,0,0,2.17.35c1.11,0,2.26-.24,4.12-.35l-1-.06h.23c-.16-.05,0-.1,0-.1a5.05,5.05,0,0,1,.68-.07v0a6.82,6.82,0,0,0-3.08.08s.12,0,.2.09c-1.1,0-2.19,0-3.28.11ZM23.94,95a.12.12,0,0,0,0,.08V95ZM94,115h0ZM412,84.91V84l0-.06A1.74,1.74,0,0,0,412,84.91Zm-7.24,7.39h.08c.37,0,.68-.11.42-.46C403.26,91.88,404,92.3,404.72,92.3Zm-.91,4.43h1.44v-.35h-1.44Zm-17.7,0a1.19,1.19,0,0,1,.37-.06l0,0a8.52,8.52,0,0,0-3.52-.08,11.07,11.07,0,0,0-1.53.23h0c.16.62,1.79,1,3.44,1a9.32,9.32,0,0,0,1.4-.1,4.47,4.47,0,0,0,1.64-.5c.52-.28-1.77-.35-2-.45Zm-6.39-3.65h-1.45v.19h1.45Zm2.49,2.25c-.82,0-1.28,0-1.41-.18a3.51,3.51,0,0,0-.65.09h0a5.58,5.58,0,0,0-.59.09c-.63.25.41.7,1.16.87h0l.28,0a2.26,2.26,0,0,0,1.1-.29A.6.6,0,0,0,382.21,95.35Zm6.38-2.69a10.34,10.34,0,0,0-2.14.32c-1.74.47-2,1.31.64,1.62h0C388.68,94.26,390.24,93.24,388.59,92.66Zm-55.41,3,.17,0-.16,0Zm67.34-1.11a6,6,0,0,0,1.2-.12c.87-.25-.53-.78-2.37-.78.59.2.93.47.7.86Zm-.48,0s0,0,0,0h0Zm-3-6.23h0Zm-2.79,10.12a2.83,2.83,0,0,0-1,.16h-.12c-.4.26,1.15.72,2.51.72C395.75,98.92,394.5,98.81,394.22,98.47Zm.84-4.83h-1.45V94h1.45Zm4.37,4c.16-.36.48-.59.56-.81a10.63,10.63,0,0,0,1.49.08c2.17-.54-.6-.88-2.14-1-1,.06-1.19.21-1.19.36a28.29,28.29,0,0,0-2.91.09c-.56.07-1,.18-.81.43h.17v0c3.18-.24,1,.36,2.63,1.06.26.1,2,.25,2.13.36.41.38-1.83.65.67.88a.47.47,0,0,1-.37.14,4.25,4.25,0,0,0-1.81,0h0a7.06,7.06,0,0,0,1.3.11,7.7,7.7,0,0,0,2.52-.42c.86-.32,1.34-.79,1.34-1.06a4.75,4.75,0,0,1-1.5-.18A3,3,0,0,0,399.43,97.68ZM330.3,98a4.45,4.45,0,0,0,1.09.13,4.37,4.37,0,0,0,1.08-.13C333.17,97.67,329.88,97.6,330.3,98ZM223.71,93.76a5.14,5.14,0,0,1-.88.06l0,0c-1.2.2-1.26.61.91.61h.85v-.7A5,5,0,0,0,223.71,93.76Zm-23,19.31q.68-.09,1.35-.12c-2.47-.7-4.42-.06-6.59-.7h0a20.4,20.4,0,0,1-2.23.38l-.15-.07h0a16.12,16.12,0,0,1-4.33.23c-1.14,0-2.36,0-3.53,0a.4.4,0,0,0,.1.12l-.19,0s.06,0,0-.08-.21-.19-.67-.3h0l-.51,0a2.32,2.32,0,0,0,.38-.07c.06,0,.08-.1,0-.12l.73.08a22.82,22.82,0,0,0,4.21.3c.3-.16,0-.4-.62-.61l.17-.06a11,11,0,0,1,4.3-.43,18.68,18.68,0,0,0-6.5.14,18.86,18.86,0,0,0-3.36,0h.06a3.42,3.42,0,0,0,.72.35,24.17,24.17,0,0,1-5.1.16,4.53,4.53,0,0,0-.91-.12c-.24,0,.06.19.53.31a53.74,53.74,0,0,1-9.31-.67,7.29,7.29,0,0,0-1.37.44l-.54-.09c-.1.08,0,.18.11.28l0,0h0c-.18.11-.45.21-.38.35l1.29,0c.83.35,1.8.7,1.17.89a13.67,13.67,0,0,1-2.93.11c1.84.16.19,1,3.26,1.23a19.46,19.46,0,0,0,2.86-.22c.53-.12.6-.27.06-.47a10.54,10.54,0,0,0,1.95-.14,4.28,4.28,0,0,0,1-.3,9.81,9.81,0,0,1,3-.25c-.5-.1-.67,0-.75-.26s1.46-.27,1.4-.47c.57-.08.79-.1.78,0s-.2.1-.46.1a19.55,19.55,0,0,0,3.06.15l.15.08c.24,0,.55-.09.85-.13q.83-.08,1.65-.21l.19.1c.7.3,2.09.58,2.72.83a19.8,19.8,0,0,0-4.86.22.19.19,0,0,0-.15.16l-.05,0v.06a1.22,1.22,0,0,0,.56.27,23.76,23.76,0,0,1,4.82-.56s0,.07,0,.1a6.62,6.62,0,0,1-2.16.32.2.2,0,0,0,.08.08,5.52,5.52,0,0,0-.81.06c-.06,0,.05.13.47.26-4.23.1-2.22-1.11-4.35-1.18-1.83.08-2.28.29-2.4.52a1.55,1.55,0,0,0-.08.36c0,.13-.11.24-.38.34-1.72-.19-5.19-.38-6.26,0v0a13.53,13.53,0,0,0,4.4.12c.36.11.49.12.27.29s-1,.28-.83.38a3.29,3.29,0,0,0,1.17.18h0l.46,0a6.47,6.47,0,0,0,2.05-.33,17.58,17.58,0,0,1,2.51.21c2.21-.25,1.21-.81,5.36-1.06a5.32,5.32,0,0,0-.67-.14l1.23-.09a5.47,5.47,0,0,1,2.17,0c-.44-.66.38-1.2,4.46-1.46a5.33,5.33,0,0,1-1.53-.3c2.07-.57,3.71.33,5.82.43l.36-.08c.15.08.3.15.45.24l1.9-.11-.61-.31Zm-9-11.26h0a10.36,10.36,0,0,0,3.58.48c.72,0,1.52,0,2.43-.1l-1.23-.65a31.2,31.2,0,0,1-4.73.27Zm12.69,6.33h0l-1.88.1.48.25c-.72,0-1.44,0-2.34,0,.76,0,1,.1.94.2-.23.33-3.34.89-4.08.33a11.89,11.89,0,0,0-2.91.87h0c-.16.1-.17.23,0,.37,1.57-.26,2.72-1.11,4.72-.26.83-.17,1.84-.32,1.9-.55h0c0-.07-.07-.15-.3-.25a41.51,41.51,0,0,0,6-.5c.21-.1.16-.22-.3-.36-.8.08-1.61.13-2.42.13l.78-.05Zm-9.67-8.24c-.08.21.72.53,1.84.53a5.33,5.33,0,0,0,1.05-.1c-.25-.35-1.46-.39-2.2-.6h0C195,99.74,194.79,99.81,194.79,99.9Zm7.56,14.3,0,.06h0a14,14,0,0,0,2.66.28,12.45,12.45,0,0,0,2.66-.28C206.89,113.92,204.65,114.05,202.35,114.2Zm-11.52.4,0,0,0,0Zm8.13-7.75h0a8.66,8.66,0,0,0,2.63.41,9.42,9.42,0,0,0,1.06-.06c-1-.21-2.14-.33-3.14-.54C199.06,106.7,198.9,106.77,199,106.85Zm5.46,8a10.14,10.14,0,0,0,1.46.11,9.84,9.84,0,0,0,1.53-.11C208.05,114.66,206.88,114.4,204.42,114.84Zm-.07,0h0Zm-11.15-3.19h0Zm.29,0h-.28l.28,0Zm4.24-3.63a3,3,0,0,0-.43.36,1.2,1.2,0,0,1-.63.25h0a7.64,7.64,0,0,0,1.26.1,8.31,8.31,0,0,0,1.79-.19c.49-.16.26-.4-1.15-.55l1.88-.11C198.73,107.66,198.08,107.8,197.73,108Zm-2.94-8.13Zm-18.34,15.93-1.88.11.63.32h0l1.88-.1Zm1.17,1.49h0c-.57.17.17.48,1.33.48a7,7,0,0,0,1.12-.09c-.29-.17-.62-.33-.93-.49A6,6,0,0,0,177.62,117.32ZM170.36,108h0a6.75,6.75,0,0,0,1.19.1,7,7,0,0,0,1.21-.1C173.36,107.86,172.66,107.59,170.36,108Zm29,6.59c-.28.15-.28.21-.28.21h0a1.18,1.18,0,0,0,.57,0v-.11a13.45,13.45,0,0,1,1.9-.11A4.59,4.59,0,0,0,199.36,114.62Zm-13.8,1.5-.1-.05h0l-.19,0c-1.38,0-3.63.28-5,.28a19.09,19.09,0,0,0,3.38.15h0a5.26,5.26,0,0,0,.89.08,5.94,5.94,0,0,0,1.57-.21l-.19-.1.36-.06A2.15,2.15,0,0,0,185.56,116.12Zm2.56-8.79c-2.26-.28-3.8-.82-6.26-1-1.43,0-1.86.14-1.91.31v0c-.07.17.17.2.32.5h0c.15.29-.7.76,1.84,1C186.21,108,184.12,107.38,188.12,107.33Zm10,8.73.63.31,2.83-.15-.62-.32C200,116,199.1,116.06,198.1,116.06Zm-9.18.92Zm11-3.55h0l-2.84.16.62.32,2.83-.16Zm-11,3.55a6,6,0,0,0-1.2.07l-.1-.07a27.51,27.51,0,0,0-5.66.32h0a12,12,0,0,0,2.32.1c1.29,0,2.58,0,2.68.34l.18,0h0l.2.08a14.17,14.17,0,0,0,1.57-.34C189.27,117.33,189.39,117.18,188.92,117Zm.53.07h0l.61.32c1,0,1.9-.1,2.83-.16l-.62-.32Zm33.46-15.59a15.43,15.43,0,0,0-2.35.21c-.46.08-.49.22-.16.38a18.66,18.66,0,0,0-4.54-.29c3.23.7-.83,1.35.6,2.12a6.86,6.86,0,0,1,1-.22h0c1.35-.2,1.26.32,1.92.73a10.74,10.74,0,0,1,2.4-2,11.31,11.31,0,0,1,3.09-1.34h-1.75C223.2,101.26,223,101.34,222.91,101.46Zm91.47-4.84c-1.62.54-.79,1.48,2.38,1.47l1.12,0a6.5,6.5,0,0,0,.86-.36c.37,0,.73,0,1.09,0a.75.75,0,0,0-.44-.25l.11,0a2.16,2.16,0,0,1,.61-.19c-.36-.56-4.16-.29-5.73-.56Zm3.16,2h0c-.31.09-.47.19-.47.34h2.87C320.35,98.47,318.44,98.41,317.54,98.65Zm1.4-.59a8.41,8.41,0,0,0,4.07,0h0A8.71,8.71,0,0,0,318.94,98.06Zm0,0h0Zm-34.88,2.66h0l0,0Zm34.16-.61c-2.45-.08-1.13.28-1.45.45,1.57,0,1.55-.23,1.45-.45Zm-34.16.61c-2.39-.13-2.66.29-3,.69H284C284,101.18,284,101,284.05,100.72Zm46.37-4.47c.19-.15.16-.22,0-.27-.32-.1-1.16-.07-1.49-.17s-.23-.13,0-.27a3.89,3.89,0,0,0-1.13.07c-.12,0,0,.11.4.11,0,.13-.25.19-.67.19-.94,0-1.89,0-2.83,0l.07,0c-.15,0,0,.12-.06.16s-.15.06-.11.12H324l-.69-.35a5.54,5.54,0,0,0-1.52.1c-.69.2.54.62,2.11.43l.43.19-.79.06a3.53,3.53,0,0,1-1.93-.13,3,3,0,0,0-.67.1c.23.16,1,.34-.11.48l-.48.12h.12c.26,0,.79-.14,1.38-.22H322q.3,0,.6,0h.11a1.41,1.41,0,0,1,1,.2c.81,0,.4-.18,0-.18,0-.08.25-.13.53-.13h.69a.41.41,0,0,1,.11.07c1.08,0,1.12-.54.2-.71A29.76,29.76,0,0,1,330.42,96.25Zm-.59,2.06V98h-1.45v.34Zm.62,1.75h-2.14c-.22.24.24.36,2.14.36C331.64,100.24,330.37,100.3,330.45,100.06Zm-9.52-3.45a.09.09,0,0,1-.06-.06v.11S320.89,96.63,320.93,96.61Zm-109.55,15.1c.67.87-1.82,1.45.6,1.77a2.11,2.11,0,0,0-.45.1l-.17,0-.18.06c-.62.2-1.26.44-1.39.16a2.78,2.78,0,0,0-.58.06l-.27-.06-1.9.1c.2.33,1.54.27,2.87.2h0a5.74,5.74,0,0,0,1.24.13h.25c-.19,0,.9-.71,1.1-.88a24.61,24.61,0,0,1,3.24-2.39c-1.07.13-2.2.25-3.12.42A5.24,5.24,0,0,0,211.38,111.71ZM320.86,96.53s0,0,0,0v0ZM178,106.09a4.41,4.41,0,0,0-2.07-.22c-1,0-1.9,0-2-.27h0l-2.83.16a44.71,44.71,0,0,0,5.55.35Zm106.53-2.87Zm-7.26,2.87h0a6,6,0,0,0,.62.32l1.89-.1-.62-.32C278.57,106,277.94,106.09,277.31,106.09Zm7.46-4,.25-.06a27.6,27.6,0,0,1,4.15-.89c-1-.29-2.82-.3-3.44-.7a9.5,9.5,0,0,0-1.51.09c-.64.11,1,.29,2.13.24a1.79,1.79,0,0,0-.32.13,3.52,3.52,0,0,0-.9.57,5,5,0,0,1-2.56.58c1.5.13,3.45.27,5.1.27a7.88,7.88,0,0,0,3.05-.37C288.77,101.46,287.77,102.05,284.77,102.14Zm-64.58,3c-1.23-.32-3.25-.45-3.77-.93a4.5,4.5,0,0,0-1.16,0c-.68.15-.19.58-1.06.67-1.83,0-1.38-.59-1.36-1-2.9,0-3.59-.54-3.52-1.26a14.63,14.63,0,0,0-3.95.47c-.86.27-1.15.7-.49,1.3.19.18,1.34.3,1.41.54.13.42-1,.85-.82,1.24s1,.49,1.33.71h0c-.05.05,0,.11.2.18,0,0,0,.1-.13.15a9.52,9.52,0,0,0,3.78-.59,12.42,12.42,0,0,1,2.49-.92,16.4,16.4,0,0,1,1.7-.2,7.26,7.26,0,0,0,1,.32,8,8,0,0,0-1,.09c-.17,0-.21.13,0,.28a6.27,6.27,0,0,0,1.67.16c.23-.11.46-.21.7-.3l.41,0a.28.28,0,0,0-.08.2,10.47,10.47,0,0,1,1.46.29h0a27.66,27.66,0,0,1,3.06,1.06,2.21,2.21,0,0,1,.18-.34,4,4,0,0,1-1.08-.31c.42,0,.87-.06,1.3-.06a7.63,7.63,0,0,1,.87-1.18c-1-.09-3.41,0-4.74-.18A14.47,14.47,0,0,1,220.19,105.18Zm66.73-1.91h0c-.2.09-.21.21.08.31a19.17,19.17,0,0,0,3.46-.37h0A7,7,0,0,0,286.92,103.27Zm-2.35,0a6.91,6.91,0,0,0-1.11.08h0c-.67.11-.14.32.16.51a12,12,0,0,1,1.57-.26Zm-2-1.12h0Zm6.15,4.42c.06-.11-.25-.25-.13-.35a1.19,1.19,0,0,1,.62-.11,21.6,21.6,0,0,0-4.1,0v0h0c-.1.56,2.23.32,3.14.56C288.56,106.62,288.65,106.64,288.71,106.52Zm-.54,6.42h0c-.32,0-.4.1-.27.17l2.14-.11h0A11.94,11.94,0,0,0,288.17,112.94Z"/></svg>