<svg width="111" height="16" viewBox="0 0 111 16" fill="none" xmlns="http://www.w3.org/2000/svg">
<path d="M5.89484 8.66211C4.28676 8.19987 3.11489 7.63346 2.37921 6.96289C1.65004 6.28581 1.28546 5.45247 1.28546 4.46289C1.28546 3.3431 1.73142 2.41862 2.62335 1.68945C3.52179 0.953776 4.68715 0.585938 6.11945 0.585938C7.09601 0.585938 7.96515 0.77474 8.72687 1.15234C9.4951 1.52995 10.0875 2.05078 10.5042 2.71484C10.9274 3.37891 11.139 4.10482 11.139 4.89258H9.25421C9.25421 4.0332 8.98077 3.35938 8.4339 2.87109C7.88702 2.3763 7.11554 2.12891 6.11945 2.12891C5.19497 2.12891 4.47231 2.33398 3.95148 2.74414C3.43715 3.14779 3.17999 3.71094 3.17999 4.43359C3.17999 5.01302 3.42413 5.50456 3.91241 5.9082C4.40721 6.30534 5.24379 6.66992 6.42218 7.00195C7.60708 7.33398 8.53156 7.70182 9.19562 8.10547C9.86619 8.5026 10.361 8.9681 10.68 9.50195C11.0055 10.0358 11.1683 10.6641 11.1683 11.3867C11.1683 12.5391 10.7191 13.4635 9.82062 14.1602C8.92218 14.8503 7.72101 15.1953 6.2171 15.1953C5.24054 15.1953 4.32908 15.0098 3.48273 14.6387C2.63637 14.2611 1.98208 13.7467 1.51984 13.0957C1.06411 12.4447 0.836243 11.7057 0.836243 10.8789H2.72101C2.72101 11.7383 3.03676 12.4186 3.66827 12.9199C4.30629 13.4147 5.1559 13.6621 6.2171 13.6621C7.20669 13.6621 7.96515 13.4603 8.49249 13.0566C9.01984 12.653 9.28351 12.1029 9.28351 11.4062C9.28351 10.7096 9.03937 10.1725 8.55109 9.79492C8.06281 9.41081 7.17739 9.0332 5.89484 8.66211ZM17.6819 15.1953C16.2497 15.1953 15.0843 14.7266 14.1859 13.7891C13.2874 12.8451 12.8382 11.5853 12.8382 10.0098V9.67773C12.8382 8.62956 13.0368 7.69531 13.4339 6.875C13.8375 6.04818 14.3974 5.40365 15.1136 4.94141C15.8362 4.47266 16.6175 4.23828 17.4573 4.23828C18.831 4.23828 19.8987 4.69076 20.6605 5.5957C21.4222 6.50065 21.803 7.79622 21.803 9.48242V10.2344H14.6448C14.6709 11.276 14.9736 12.1191 15.553 12.7637C16.139 13.4017 16.8812 13.7207 17.7796 13.7207C18.4176 13.7207 18.958 13.5905 19.4007 13.3301C19.8434 13.0697 20.2308 12.7246 20.5628 12.2949L21.6663 13.1543C20.7809 14.515 19.4528 15.1953 17.6819 15.1953ZM17.4573 5.72266C16.7282 5.72266 16.1162 5.98958 15.6214 6.52344C15.1266 7.05078 14.8206 7.79297 14.7034 8.75H19.9964V8.61328C19.9443 7.69531 19.6969 6.98568 19.2542 6.48438C18.8115 5.97656 18.2125 5.72266 17.4573 5.72266ZM30.4261 15C30.3219 14.7917 30.2373 14.4206 30.1722 13.8867C29.3323 14.7591 28.3297 15.1953 27.1644 15.1953C26.1227 15.1953 25.2666 14.9023 24.596 14.3164C23.9319 13.724 23.5999 12.9753 23.5999 12.0703C23.5999 10.9701 24.0166 10.1172 24.8499 9.51172C25.6898 8.89974 26.8681 8.59375 28.3851 8.59375H30.1429V7.76367C30.1429 7.13216 29.9541 6.63086 29.5765 6.25977C29.1989 5.88216 28.6422 5.69336 27.9066 5.69336C27.262 5.69336 26.7217 5.85612 26.2855 6.18164C25.8493 6.50716 25.6312 6.90104 25.6312 7.36328H23.8148C23.8148 6.83594 24.0003 6.32812 24.3714 5.83984C24.749 5.34505 25.2568 4.95443 25.8948 4.66797C26.5394 4.38151 27.2457 4.23828 28.014 4.23828C29.2314 4.23828 30.1852 4.54427 30.8753 5.15625C31.5654 5.76172 31.9235 6.59831 31.9495 7.66602V12.5293C31.9495 13.4993 32.0732 14.2708 32.3206 14.8438V15H30.4261ZM27.428 13.623C27.9944 13.623 28.5316 13.4766 29.0394 13.1836C29.5472 12.8906 29.915 12.5098 30.1429 12.041V9.87305H28.7269C26.5133 9.87305 25.4066 10.5208 25.4066 11.8164C25.4066 12.3828 25.5954 12.8255 25.973 13.1445C26.3506 13.4635 26.8356 13.623 27.428 13.623ZM39.889 6.05469C39.6155 6.00911 39.3193 5.98633 39.0003 5.98633C37.8154 5.98633 37.0114 6.49089 36.5882 7.5V15H34.7816V4.43359H36.5394L36.5687 5.6543C37.1611 4.71029 38.001 4.23828 39.0882 4.23828C39.4398 4.23828 39.7067 4.28385 39.889 4.375V6.05469ZM45.6019 13.7207C46.2464 13.7207 46.8095 13.5254 47.2913 13.1348C47.7731 12.7441 48.04 12.2559 48.0921 11.6699H49.8011C49.7685 12.2754 49.5602 12.8516 49.1761 13.3984C48.792 13.9453 48.2776 14.3815 47.6331 14.707C46.9951 15.0326 46.318 15.1953 45.6019 15.1953C44.1631 15.1953 43.0172 14.7168 42.1644 13.7598C41.318 12.7962 40.8948 11.4811 40.8948 9.81445V9.51172C40.8948 8.48307 41.0836 7.56836 41.4612 6.76758C41.8388 5.9668 42.3792 5.34505 43.0823 4.90234C43.792 4.45964 44.6286 4.23828 45.5921 4.23828C46.777 4.23828 47.7601 4.5931 48.5413 5.30273C49.3291 6.01237 49.749 6.93359 49.8011 8.06641H48.0921C48.04 7.38281 47.7796 6.82292 47.3109 6.38672C46.8486 5.94401 46.2757 5.72266 45.5921 5.72266C44.6741 5.72266 43.9612 6.05469 43.4534 6.71875C42.9521 7.3763 42.7015 8.33008 42.7015 9.58008V9.92188C42.7015 11.1393 42.9521 12.0768 43.4534 12.7344C43.9547 13.3919 44.6709 13.7207 45.6019 13.7207ZM53.639 5.71289C54.4398 4.72982 55.4814 4.23828 56.764 4.23828C58.997 4.23828 60.1234 5.49805 60.1429 8.01758V15H58.3362V8.00781C58.3297 7.24609 58.154 6.68294 57.8089 6.31836C57.4704 5.95378 56.9398 5.77148 56.2171 5.77148C55.6312 5.77148 55.1168 5.92773 54.6741 6.24023C54.2314 6.55273 53.8864 6.96289 53.639 7.4707V15H51.8323V0H53.639V5.71289ZM75.9339 8.7207H69.9671V15H68.0921V0.78125H76.9007V2.32422H69.9671V7.1875H75.9339V8.7207ZM80.8265 15H79.0198V4.43359H80.8265V15ZM78.8734 1.63086C78.8734 1.33789 78.9612 1.09049 79.137 0.888672C79.3193 0.686849 79.5862 0.585938 79.9378 0.585938C80.2894 0.585938 80.5563 0.686849 80.7386 0.888672C80.9209 1.09049 81.012 1.33789 81.012 1.63086C81.012 1.92383 80.9209 2.16797 80.7386 2.36328C80.5563 2.55859 80.2894 2.65625 79.9378 2.65625C79.5862 2.65625 79.3193 2.55859 79.137 2.36328C78.9612 2.16797 78.8734 1.92383 78.8734 1.63086ZM85.6898 15H83.8831V0H85.6898V15ZM91.0413 1.875V4.43359H93.014V5.83008H91.0413V12.3828C91.0413 12.806 91.1292 13.125 91.305 13.3398C91.4808 13.5482 91.7803 13.6523 92.2034 13.6523C92.4118 13.6523 92.6982 13.6133 93.0628 13.5352V15C92.5875 15.1302 92.1253 15.1953 91.6761 15.1953C90.8688 15.1953 90.2601 14.9512 89.8499 14.4629C89.4398 13.9746 89.2347 13.2812 89.2347 12.3828V5.83008H87.3109V4.43359H89.2347V1.875H91.0413ZM99.5179 15.1953C98.0856 15.1953 96.9202 14.7266 96.0218 13.7891C95.1234 12.8451 94.6741 11.5853 94.6741 10.0098V9.67773C94.6741 8.62956 94.8727 7.69531 95.2698 6.875C95.6735 6.04818 96.2334 5.40365 96.9495 4.94141C97.6722 4.47266 98.4534 4.23828 99.2933 4.23828C100.667 4.23828 101.735 4.69076 102.496 5.5957C103.258 6.50065 103.639 7.79622 103.639 9.48242V10.2344H96.4808C96.5068 11.276 96.8095 12.1191 97.389 12.7637C97.9749 13.4017 98.7171 13.7207 99.6155 13.7207C100.254 13.7207 100.794 13.5905 101.237 13.3301C101.679 13.0697 102.067 12.7246 102.399 12.2949L103.502 13.1543C102.617 14.515 101.289 15.1953 99.5179 15.1953ZM99.2933 5.72266C98.5641 5.72266 97.9521 5.98958 97.4573 6.52344C96.9625 7.05078 96.6566 7.79297 96.5394 8.75H101.832V8.61328C101.78 7.69531 101.533 6.98568 101.09 6.48438C100.647 5.97656 100.048 5.72266 99.2933 5.72266ZM110.846 6.05469C110.573 6.00911 110.276 5.98633 109.957 5.98633C108.772 5.98633 107.968 6.49089 107.545 7.5V15H105.739V4.43359H107.496L107.526 5.6543C108.118 4.71029 108.958 4.23828 110.045 4.23828C110.397 4.23828 110.664 4.28385 110.846 4.375V6.05469Z" fill="white"/>
</svg>
